/* XPM */
static char *result[] = {
/* columns rows colors chars-per-pixel */
"31 32 23 1 ",
"  c #1A1C2C",
". c #1B1C2C",
"X c #1A1D2C",
"o c #1A1C2D",
"O c #333C56",
"+ c #333D56",
"@ c #323C57",
"# c #333C57",
"$ c #333D57",
"% c #38B664",
"& c #38B764",
"* c #39B764",
"= c #A7F070",
"- c #A7F170",
"; c #A7F071",
": c #F4F4F4",
"> c #F5F4F4",
", c #F4F5F4",
"< c #F5F5F4",
"1 c #F4F4F5",
"2 c #F5F4F5",
"3 c #F4F5F5",
"4 c None",
/* pixels */
"4444444444444444444444444444444",
"4444444444444444444444444444444",
"4444444444444444444444444444444",
"4444444444444444444444444444444",
"4444444444444444444444444444444",
"4444444444444::>:1:::4444444444",
"4444444444444,:2:::>:4444444444",
"44444444444:,@#@O####::44444444",
"44444444444:1O######@:,44444444",
"44444444444::##&&&&#O:344444444",
"44444444444::$#&&&&##::44444444",
"44444444444::-=&&%*;=::44444444",
"44444444444::=;*&&&==::44444444",
"44444444444::##&&&&O#::44444444",
"44444444444::##%&&&##1:44444444",
"44444444444:<#+######:144444444",
"44444444444::########::44444444",
"4444444444444::::::>:4444444444",
"4444444444444::::::::4444444444",
"4444444444444444444444444444444",
"4444444444444444444444444444444",
"4444444444444444444444444444444",
"4444444444444444444444444444444",
"4444444444444     . X4444444444",
"4444444444444        4444444444",
"444444444444444    444444444444",
"444444444444444  o 444444444444",
"4444444444444444444444444444444",
"4444444444444444444444444444444",
"4444444444444444444444444444444",
"4444444444444444444444444444444",
"4444444444444444444444444444444"
};
