/* XPM */
static char *result[] = {
/* columns rows colors chars-per-pixel */
"64 64 10 1 ",
"  c #1A1C2C",
". c #1B1C2C",
"X c #1A1D2C",
"o c #1A1C2D",
"O c #323C56",
"+ c #333C56",
"@ c #333D56",
"# c #323C57",
"$ c #333C57",
"% c #333D57",
/* pixels */
"                                                  o             ",
"                       X         X   o X                        ",
"  X $$$$$$$$$$$$$$$$$$$$$$$$$$$$$$$$$$$$$$$$$$$$$$$$$$$+$$$$$$  ",
"    $$$$$$#$$$$$$$$$$$$$$$%$$$$$$$$$$$$$$$$$$$$$$$$$+$$$#$$$$$X ",
"  $#$#$$$$$$$$$$$$$$$$$$$$$$$+$$$$$$$$$$$$$$$$$$$$%$$+$$$$$$$$$$",
"  %$+$$$$$$$$$$$$$$$$$$$$+$$$$$$$$$$$$$$$$$$$$$%$$$$$$$$$$$$$$$$",
"  $$$$$#$$$$$$$$$$$$+$$$$$$$$$$$$$$$$$$$$$$$$$$$$$$$$$$$$$$$$$$$",
"  $$$$$$$$$$$$$$$$$$$$$#$$$$$$$$$$$$$$$$$$$$$$$$$#$$$$$$$$$$$$$$",
"  $$$$$$$$+$$$$$$$$$$$$$$$$$$$$$$$$$$$$$$$$$$$$$$$$$$$$$$$O$$$$$",
"  $$$$$$$$$$$$$$$$$$$$$$$$$$$$$$%$$$%$$$$$$+$$$$$$$$$$$#$#$$$$$$",
"  $$%$$$++$$$$$$$$$$$$$$$$$$$$$$$$$$$$$$$$$$$$$$$$$$$$$$$$$$$$$#",
"  $$$$$$$$$$$$#$$%$$$$$$$$$$$$$$$$$$$$$$$$$$$$$$$$$$$$$$#$$$$$$$",
"  #$$$$$$$$$$$$$$$$$$$$$$$$$$$$$$$$$$$$$+$%$$$$$$$$$$$$$$$$$$$#$",
"  $$$$$$$$$$$$$+$$$$$$+$$$$$$%$$$$$$$$$$$$$%$$$$$$$$$$$$$#$$$$$$",
"  $$$$$$$$$$$$$$$$$$$$$$$$%$$$$$$$$$$$$$$$$$$$$$$$$$$+$$$$$$$$$$",
"  $$+$$$$$$$$$$$$$$$$$$$$$$$$$$$$$$$$$$$$$$$$$$$$$$$$$$$$$$%$$$$",
"  $$$$$$$$$$$#$$$$$$$+$$$$$$$$$$$$$$$$$%$$$$$$$$$$$$$$$$$$$$$$$#",
"  $$$$$+$$$#+$$$$$$$$$$$$$$$$$$$$$$$$$$$$$$$$$$$$$$$#$$$$$$$$$$$",
"  $$$$$$$$$$$$$$$$$$$$$$$$$$$$$$$$$$$$$$$$$$$$$$$$$$$$$$$$$$$$%$",
"Xo$$$$$$$+$$$$$$$$$$$$$$$$$$$$+$$$$$$$+$$$$$$$$$$$$$$$$$$$%$$$$$",
"  $$$$$$$$$$$$++$$#$$$$$$$$$$$$$$$$$$$$$$$$#$$$$$$$$$$$%$$$$$$$$",
"  $$$$$$$$$$$$$$$$$$$$$$$$$$$$$$$$$$$$$$$%$$$$$$$$$$$$$$$#$$$$$$",
"  $$$$$$$$$$$$$$$$$$$$$+$$$$$$$$$$@$$$%$$$$$$$$$$$$$$$$$$$$$$$$$",
"  $$$$$$$+$$$$$$$#$$@$$$$$$$#$$$$$%$$$#$$$$$$$$$$$$$$$$$$$$$$+$$",
"  $$+$$$$$$#$$$$$$$$$$$$$$$$$$$#$$$$$$$$#$$$$$%$$$$$$$$$$$$$$$$$",
"  $$$$%$$$$$$$#$$$$$$#$$$$$$$$#$$$$$$$$$$$$$$$$$$$$$$$%$$$$$$$$$",
"  $$$$$$$$$$$$$$$$$$$$$$$$$$$$+$$$$$$$$$$$$$$+$$$$$$$$$$$%$$#$$$",
"  $$$$$$$$$#$$$$$$$$$$$$$$$$$$$$$+$$$$$$$$$$$$$$$$+$$$$$$$$$$$$$",
"  $$$$$$$$$$$$$$$$$$$$$$$$$$$$$$$$$$$$$$$$$$$$$$$$$$$$$$$$$$%$$$",
"  $$#$$$$$$$$$$$@$$+$$$$$$$$$#$$$$$$$$$$$$$+$$$$$$$$$$$$$$$$$$$#",
"  $$$$$$+$$$$$$$$$$$$$+$$$$##$$+$$$$$$$$$$$$$$$$$$$$$$$$$$$$$$$$",
"  %$++$$$$$$$$$$$$$$$$O$$$$$$$$$$$$$$$$$$$$$$$+$%$$$$$#$$$$$$$$$",
"  $$$$$$$$$$$$$$$$$$$$$$$#$$$$$$$$$$$$$$$$$+$#$$+$$$$$$$$$$$$$$$",
"  $$$$$$$$$$#$$+$$$$$$$$$$$$$$$$$$$$$$$$$$$$$$$$$$$$$$$$$$#$$$$#",
"  $$%$$$$$$$$$$$$$$$$$$#$%%$$$$$$$$$$$$$$$$$%$$$$$$$$$$$$$$$$$$$",
"  $$$$$$$$$$$$$$$$$$$$$%$$$$$$$$$$$$$$$$$#$$$$$$$$$$$$$$$$$$$$$$",
"  $$$$$$$$$$$$$$$$$$$$$$$$$$$$$$$$$$$$$$$$$$$$$$$$$$$$$$$$$##$$$",
"  $$%$$$$$$$$$$$$$$$$$$$$$$$$$$#$$$$$$$%$$$$$$$$$$$$$$$$$$$$%$$$",
" o$$$$$$$$$$$$$$$$$$$$$$$$$$$$$$$$$$$$$%$$$+$$$$$$$$$$$$$$$$#$$$",
"  $$$$$$$$$$#$$$$$$$$$$$$$$$$$$$$$#$$$$+$$$$$$$$++$$$#$$$$$$$$$$",
"  $$$$$$$$$$+$$$$$$$$$$$$$$$$++$$$$%$%#$+$$$$$$$$$$$$$$$$$$$$$$$",
"  $$$$$$$$$$$$$$$$$$$#$$$$$$$$$$$$$$$$$$$$$$$$$$$$$+$$$$$$$$$$$$",
"  $%$$$#$$$$$$$$$$$$$$$$$$$+$$$$$$$$$$$$$$$$$$$$$$$$+$$$$$$$$$$$",
"  $$$$$$+$$%$$$$$#$#$$$$$$$$$$$$$$$$$$$$#$$$$$$$$$$%$$$$$$$$$$$$",
"  $$$$$$$$$$$$$$$$$$$$$$$$$$$$$$$$$$$$$$$$$$%$$$$$$$$$$$$$$$$$$$",
"  $$$$$$$$$$%$$$$$$$$$$$$$$$$$$$$$$$$%$$$$$$$$$$$$$$$$$$$%$$$$$$",
"  $$$$$$$$$$$$$$$$$$$$$$$$$$$$%$$$+$$$$$O+$$$$$$$$$$$$$$$$$$$$$$",
"  $$$#$$$$$+$%$#$$$$$$$$$$$$$$$$$$$$$$$$$$$$$$$$$$$$$$$+#$$$$$$$",
"  $$$$$$+$$$$$$$$$$$$$$$$+$$$$$$$$$$$$$$$$$$$$$$$$$$$$$$$$$$$$$$",
"o $$$$$$$$$$$%$$%$+$$$$$$$$$$#$$$$$$$$$$$$+$$$$$$$$$$$$$$$$$$$$$",
"  $$$$$$$$$$$$$$$$$$$$$$$$$$$%+$$$$$$$$$$$$%$$$$$$$++$$$$$$$+$$$",
"  $$$$$$$+$$$$$$$$$$$+$$$$$$$$$$$$$$$$#$$$$$$$$$$$$$$$$$@$$$$$$$",
"  $$$$$$$$$$$$$$$$$$$$$$$$$$$$$$$$$$$$$$$$$$$$$$$$$$$$$$$$$$$$$$",
" .$#$$$$$$$$$+$$$$$$$$$$$$$$$$$$$$#$$#$$$$$$$$$$$$$$%$$$$$$$$$$$",
"  $$$$$$$$%$$$$$$$$$$$$$$$$$$$$$$$$$$$$$$$$$$$+$$$$$$$$$$$$$$$$$",
"  #$$$$$$$$$+$$#$$$$$$$$$$$$$$$$$$$$$+$#$$$$$$$$$$$$$$$$$$$$%$$$",
"  $$$$$$$$$$%$$$$$$##$$$$$$$$$$$+$$#$$#$$#$$$$$$$$$$$#$$$$$$$$$$",
"  $$$$$$$$$$$$$$$$$$$$$$$$#$$$$$$$$$$$$$$$$$$$$$$$$%$$$$#$$$##$$",
"  $$$$$$$$$$$$$$$$$$$$$$$$$$%$$$#$$$$$+$$$$$$$$$$+$$$$$$$$+$$$$$",
"  $$$%$$$$$$$$$$$$$$$$$%$+$$$$$$$$$$$$$$$$%$$$$$$$$$$$$$$$$$$$$$",
"  $+$$$$$$$$$$$$+%$$$%$$$$%$$$$$$$$$$$$$$$$$$$$$$$$$$$$$$#$$$$@$",
"  $$$$$$$$$$$$%$$$$$$$$$$$$$$$$$$$$$$$$$$$$$%$$$$$$$$$$$$$$$$$$$",
"    $$$$$#$$$$$$$$$$$$$$$$$$$$$$$$$$$$$$$$$$O$$$$$$$$$$$$$#$$$  ",
"    $$$$$$$$$$$$$$$$$$$$$$$#$+$$$$$$$$$$$$$$$$#$$$$$$$$$$$$$$$  "
};
