/* XPM */
static char *result[] = {
/* columns rows colors chars-per-pixel */
"63 63 13 1 ",
"  c #333C56",
". c #323C57",
"X c #333C57",
"o c #333D57",
"O c #566C86",
"+ c #576C86",
"@ c #566D86",
"# c #566C87",
"$ c #94B0C2",
"% c #95B0C2",
"& c #94B1C2",
"* c #94B0C3",
"= c None",
/* pixels */
"OOO#@OOOOOOOOOOOO+OOOOOOOOOOOOOOOOO+OOOO@OOOOOOOOOOOOOOOOOOO===",
"$$$*$$*$$$$$$$$$$$$$$$$%$$$$$$$$$$$$*$$*$$$$$$$$$$$$$$$$$$@OOO=",
"$&$$$$$$$$$$$$$$&$$$$$$$*$$$$$$$$$$$$$$$$$$$$$$$$$$$$$$$$$OOOO=",
"$$%$$$$$$*$$$$$*$$*&$$$$$$$$$$$$%$$$$$$$$$$$$$$$*$$$$$$$$$$$OOO",
"$$$$$$$$$$$$$$$$$$$$$$$$*$%$$$$$$$$$*$$$$$$$$$&$$$$$$$$$$$$$OOO",
"$$$$$%$$$$$$$&$$$$$$$$$$$$$$$$*$$$$$$$$$$$$$$$$$$$$$$$$$$$$$$&O",
"$$$$$$$$$$$$$$$$$$*$%$$$$$$$$$$$$$$$$$$*$$$$$$$$$$$$$$$$$$$$$$O",
"$&$*$$$&$$$$$$$$$$$$$*&$$$$$$$$$$$&$$$$$$$$$$$$$$$$$$$$$$$$$$$O",
"$$$$$$$$$*$$$$$$$$$$$$$$$$$$$$$$$$$$$$$$$$$$$$$$*$$$$$$$$$$$$&O",
"$$$$$$$$$$&$*&$$$$$$$$$$$$$$&$$$%$$$$$$$$$$$$$$$$$$$$$$$$$$$$$O",
"$$$$$$$$$$$$$$$$$$$$$$$$$$$$$$$$$$$$$$$$&$$$$$$$$$%$$$$$$$$$$$O",
"$$$$$$$$$$$$$$$$$$$$$$$$$$$$$$$&$$$$$$$$$$$$$$$$$$$$$$$$$$$$*$O",
"$$$$$$*&$$$$$$$$$$$$$$$$$&$$$%$$$$$$$$$$$%$$$$$$$$$*$$$&$$$$$&O",
"OOOOOOOOOOOOOO+OOOOOOOOOOOO#@OOOOOOOOOOOOOOOOOOO$$$$$$$$$$$$$$O",
"OOOOOOOOOOOOOOO#OOOOOOOOOOOO@OOOOOOOOOOOOOOOO#OO$$$$$$$$$$&$$$O",
"XXX XXXXXXXXXXXXXXXXXXXXXX.XXXXXXXoXXXXXXXXXXXXXOO$$$$$$$$$$$$O",
"XXXXXXXXX XXXXXXXXXXXXXXXX.XXXXXXXXXXXXXXXXoXXXXOO$$$$$$$$$$$$O",
"XX.XXXOOO#O+OO+#OOOOOOOOOOOO@OOOOOOOOOOOO+XXXXXXOO$$$$$$$$$$$$O",
"XXXXXXOOOOOOOOOOOOOOOOOOOOO#OOOOOOOOOOO#OOXXXXXX#O$$$$$$%$$$$$O",
"XoXXOOOOOOOOOOOOOOOOOOOOOO+OOOOOOOOOOOOOO+#OXXX.OO$$$$$$$$$$$$O",
"XXXXOOOOOOOOOOOOOOOOOOOOOOOOOOOOOOOOOOOOOOOOXXXXOO$$$$$$$$$$$$O",
"XXOOOOOO+OOOOOOOOO#OOOOO#OOOOOOOOOOOOO+OOOOOO#o.OO$$$%$$%$$$$$O",
"XXOOOOOOOOOOOOOOOOOOOOOOOOOOOOOOO#OOOOOOOOOOOOXXOO$$$$$$$$$%$$O",
"XXOOOOOOOOOOOOOOOOOOOOOOOOOOOOOOO#O+OOOOOOOOOOXXOO$$$%$$$*&$$$O",
"XXOOOOOOOOOOOOOOOOOOOOOOOOOOOOOOOOOOO@OOO+OOOOXXOO$$$$$&$$$$$$O",
"XXOOOOOOOOOOOOOOOOOOOOOOOOOOOOOOOOOOOOOOOOOOOOX.OO$$$$$$$$$$$$O",
"XX+OO+OOOOOOOOOOOOOOOOOOOOOOOOOOOOOOOOOOOOOOOOXXOO$$$$$$$$$$$$O",
"XoOOOOOOOOOOOOOOOOOOO#OOOOOOOOO@OOOOOOOOOOO@OOXXOO$$$$$$$$$$$$O",
"XXOOOOOOOOOO#OOOOOOOOOOOOOOOOOO@OOOOOOOOOOOOOOXXOO$$$%$$%$$$$$O",
"XXOOOOOOOOOOOOOOOOOOOOOOOOOOOOOOOOO+O@OOOOOOOOXXOO$$$$*$$$$$$$O",
"XXOOOOOOOOOOOOOOOOOOOOOOOOOOOOOOOOOOOOOO@OOOOOXXOO$$$$$$$$$$$$+",
"XXO#@OOOOOOOOOOOOOOOOOOOOOOO@OOOOOOOOOOOOOOOOOXXOO$$$$$$$$$%$$O",
"XXOOOO#OOOOOOOOOOOOOOOOOOOOO@OOOOOOOOO+#OOO@OOX.OO$$$$$$$$$$$$O",
"XXOOOOOOOOOOOOOO@OOOOOOOOOO#OOOOOOO+OOOOOOOOOOXXOO$$$$$$$*$$$$O",
"XXOOOO#OOOOOOOOOOOOOOOOOOOOOOOOOOOOOOOOOOOOOOOXXOO$$&$$$$$$$$$O",
"XXOOOOOOOOO+#OOOOOOOOOOOOOOOOOOOOOOOOOOOOOOOOOXXOO$$$$$$$$$$$$O",
"XXOOOOOOOOOOOOOOOOOO+OOOOOOOOOOOOOOOOOOOOOOOOOXXOO$*$$$$$$$$$$O",
"XXOOOOOOOOOOOOOOOOOOOOOOOOOOOOOOOOOOOOO#OOOOOOXXOO$$$$$$$$$$$$O",
"XXO#OOOOOOOOOO+OOOOOOOOOOOOOOOOOOOOOOOOOOOOOOOXXOO%$$$$$$$&$$$O",
"XXOOOOOOOOOOOOOOOOOOOOOOOOOOOOO@OOOOOOOOO+OOOOXXOO$$$$$$$$$$$$O",
"XoOOOOOOOOOOOOOOOOOOOOOOOOOOOO#OOOOO#OOOOOOO+#XXOO$$$$$$$$$$$$O",
"XXOOOOOOOOOOO@OOOOOO+OOOOOOOOOOOOOOOOOOOOOOOOOXXOO$$$%$$$$$$$$O",
"XXOOOOOOOOOO#OOOOOOOOOOOOOOOOOOOOOOO#OOOOOOOOOXXOO$$$$$$$$$$$$O",
"XXOOOOOOOOOOOOOOOOOO+#OOOOOOOOO@OOOOOOOOOOOOOOXXOO$$$$$$$$$$$$O",
"XXOOOOOOOOOOOOOOOOOOOOOOOOOOOOOO+OOOOOOOOOOOOOX.OO$$$$$$$$$$$$O",
"XXOOO+OOOO@OO@OOOOOOOOOOOOOOOOOOOO@OOOOOOOOOOOXXOO$$$$$$$$$$$$O",
"XXOOOOOOOOOOOOOO@+#OOOO+OOOOOOOOOOOOOOOOOOOOOOXXOO$$$$$&$$$$$$O",
"XXOO@OOOOOOOOOOOOOOOOOOOOOOOOOOOOOOOOOOOOOOOOOXXOO$$&$$$$$$$$$O",
"XXOOOOOOOOOOOOOOOOOOOOOOOOOO@OOOOOOOOOOOOOOOOOXXOO$$$$$$$$$$$$O",
"XXOOOO#OOOO+OOOOOOO@OOOOOO+#OOOOOO@OOOOO@OOOOOXXOO%$$$$$$$$$$$O",
"XXOOOOOOOOOOOOOOOOOOOOOOOOOO@OOOOOOOOOOOOOOOOOXXOO$$$$$$%$$$$$+",
"XXOOOOOO+OOOOOOOOOOOOOOOOOOOOOOOOOOOOOOOOOOOOOXXO@$$$$$$$$$$$$O",
"XXOOOOOOOOO+OOOOOOOOOOOOOOOOOOOOOOOOOOOOOOOOOOXXOO$$$$$$$*$$$$O",
"XXOOOOOOOOOOOOOOOOOOOOOO#OOOOOOOOOOOOOOOOOOOOOXXOO$$$$$$$$$$$$O",
"Xo+OOOOOOOOOOOOOOOOOOOO+OOOOOOOOOOOOOOOOOO#@OOXXOO$$$$$$$$$$$$O",
"XXOOOOOOOOOOOOOOOOOOOOOO#OOOOOOOOOOOOOOO@OOOOOXXOO$$$%$$$$$$$$+",
"XXOOOOOOO#OOOOOOOOOO+OOOOOOOOOOOOOOOO@O#OOOOOOXX#O$$$$$$$$$$$$O",
"XXOOOOOOOOOOO@OOOOOOOOOO#OOO@OOOOOOOOOOOOOOOOOXXOO$$$$$$$$$$$$O",
"XXOOOOOOOOOOOOOOO+OOOOOOOOOOOOOOOOOOOOOOOOOOOOXXOO$$$$$$$$$$$$O",
"XXXXOOOOOOOO#OOOOOOOOOOOOOOOOO#OOOOOOOOOOOOOXXXXOO%$$$$&$$$$$$O",
"XXXXOOOOOOOOOOOOOOOOOOOOOOOOOOOOOOOOOOOOOOOOXXXXOO$$$$$$$$$$*$O",
"XXXXXXOOOOOOOOO#O+OOOOOOOOOOOOOOOOOOOOOOOOXXXXXXOO$$$$$&$$$$$&O",
"XXXXXXO@+OOOOOOOOOOOOOOOOOOOOOOOOOOOOOOOO+XXXXXXOO$$&$$$$$$$$$O"
};
