/* XPM */
static char *result[] = {
/* columns rows colors chars-per-pixel */
"63 64 16 1 ",
"  c #323C56",
". c #333C56",
"X c #323C57",
"o c #333C57",
"O c #333D57",
"+ c #566C86",
"@ c #576C86",
"# c #566D86",
"$ c #566C87",
"% c #576C87",
"& c #94B0C2",
"* c #95B0C2",
"= c #94B1C2",
"- c #94B0C3",
"; c #95B0C3",
": c None",
/* pixels */
"::::::::::::::::::::::::::::::::::::::::::::::::++&&&&&&*&&&&=+",
"oooo++++++++@++@+++++++$++++#+++++++++%+++ooXooo@+&&&&&&&-&&&&@",
"oooo+++++$#+++++++++++++++++#+++@$++++$+++Xo. oo++&&&&&=&&=&&&+",
"oo+++@+++++++++++++++@#+$#+++$+#+@#$+++$#+++o.oo++&&=&*&&&&&&&$",
"oO$+++++++#++++$+++++++++++@#@@+++#@++$+++++oooo++&&&&-=&*=&&&+",
"+++++$@+++++@#+++++++++++++$#$@+@++@+++@#++++@Oo++*&&&&&&-&*&&@",
"++++#+++$+#+++++++@#++++@++++++#++#+++++#++++$oo++&&&&*=&&&-&&$",
"++@%#++#+++++++++++++$++++++#%++++#+++++++++$@oo++&&=&-&&&=&&&@",
"+#++#$+++++++#++++++++++++$++++++++$+++@#++#+@o.++&&&**&&&&&&=+",
"++++#++#+++++++@#++#+++++++++++++++@+#+++++#++Oo++*-&&&&&-&**&@",
"++++++++++#++++++++++%++++$++++++++$+#@+++$+++oo++&&&&-=--&&&&+",
"+++++++#+@++++@++@++++#+++++++++++#+++++++++++oo++&-&&&&&&&&&&@",
"+++++@+#+%#$++++#++++@+++#++#++#+++++#++++++++Oo++&;&&&&--=&&&+",
"+++++++#+++++++$+++++@+++++$++++++++++$++@+#++o.+#*&&&&&&&&&&&+",
"++++#++#+$++++$+++++++++++++++$+++#++++@++++++oo+#&&&&&&&&=&-&@",
"+#@++++++++$$+++++++++#++#+$++++++++++@+++++@+oo@+&&=&&&&&&&&&+",
"+++@++$+@+++++++++@++@++++@++$+++++++#+++++#++oX++*&&&&&&&&*&=+",
"@+++#+++$+#@+#+@+%++$$+++++++++++@++++$+++++++oo+#--&&&&&&=&&&+",
"++$+++++@@+++#++++++++++++$+++++$++$@+++++++++o.++&&&*&&&&&&&&+",
"@++++++#++++$+@+++++@@+@+++@++++@+++++@+#+@+++oo++&&=&&&;&&&&=+",
"+#+++++++++@+++++@%+++++@+@++$++++++$+++++$#$+oo++&&=&&&-&&&&&+",
"+++++$+++++$+++++$+++++++++++++++++++++$++@++$oo$+&&=&-=&*&&&&+",
"++$@+++#@+#++++@+++++++$+++++@+++++@++++++@+@+oo+#&&=&&&&*&&-=+",
"+++++%$+++++++++#+++$+#$++$+++$+$+#+@+++++++$+oo$#*&&&-&&&=&&=+",
"@++++++++++$++++++++%+#++#+++++#+@++$++++%++++oo+#&&&&&&&&&*&&+",
"++++++%++++++++++@+++++++#+++%++++++++++#+++++oo++-&&&&&&*&&&&+",
"++$$++@++@+$+++++@++++++++++++++++++++++++++++oo@+&-&-&&&&&*&&+",
"++@+#@+#+$+++++@#$++++++++++++$#+++%+++++@+++%O.%+&&&&&=&-&&*&+",
"++++++++++#@++@%+++++++++#$+#+@#++++++$@++++++Oo++&&&&&&&&&-&=+",
"+++++@+#++#%+++++@+#++#+++$@#+++++++++++++$+++oo@+*&&*;&--&&&&+",
"+#+++++++++++++@++++@+++++++++@#+++++++$++++++Oo@+&;&&&&&&=&&&+",
"+#++++++++++++++++$#++++++++++++++++++++++@+++Oo++&&=-*&*&&&&&+",
"+++++++++++++++$#$$+++++++++#++++++++++@+++++@o.++-&&&&=&&&&-=+",
"++++++++@+++++++#@+++++$@++@++++%+++++++++++++oo++*&&&&&&&&*&&$",
"+#++#++++++++#@++$++++++++@+++++++++++++#+$#++oo+#&&&&*&&&&&&=@",
"+++++++++$+++++++@+++++++++$+++++++$++++#++++@oo@+-*&&&&-&=&&&+",
"++$+++$+++++++++#++#++++++$++$++++++@+$@++++++oo++&&=-&&&&&&-&+",
"+++++++++++++++@+$++++++++++++++++#++++$+++#++oX++&&&&-=&&&&;&+",
"++@++++++++@+++++@+++++++#$%+@+++++@++++++@#++Oo++-&&*&&&&&*&&+",
"++%+#+++++#+++%++++#++#+++$+++++++++$++@++$+++oo++&&&&*&*&&&*&+",
"++++++++++++++++++++++++++++#@+++++++#++++++++oo@+&&&&&&&&&-*=+",
"+#+++++#@@+++++++++#+++++++++++++$+++++++@+#+@o +#-&&&&&*&&&*&+",
"+++@#++#+++$+#$+++$+++++++++++++++#++++++++#++oo++&&=&&=&&&&&&+",
" O+++$+#++++++++++++++++++$++++++@++$+++++$+oooo@+&-&-&=&&&&&&+",
"oO$++$++++#++++++++#++++$+++++@#+++++#+++@++oooo++&-&&&&&-=&&&+",
".oXo#++#%+#++++$+$$+++++$+++++++$$+@@+++++oooooo+#&&=--&&&&*&=+",
"oooo++++$++++#+@+++++++$+#$@+++++++++#++++.OooOX++&&&&&=&&&&&=+",
"oOoooooooXoooooXOooooooXooooooooooooooXoooooooOo++&&=&&&&&&&&&+",
"oOoooo.o.oOX.ooooo.OXoooooooo ooo.oXooo.OoooooO.++&-&&&&&&=&&&$",
"$++@++++++#++#++++++++++$++@++++++++++++#+$#++++&&-&&&&&-*=*&&+",
"+#+++++++++++++++@++++#+++++#+$+++#+++++#+++++#+&&&&&&&&&&=-&&+",
"-&&&&&&&**&&&&&&=-&&&&=&&&&&&&&&&&&&&=&&&&&&&&&&-&&&=&&=&*&-&&+",
"&&-&&&&&&&&&&=&&&&*=&&&&&&&&&&*&-&=*-=&&&&&&&&&&-&&&&&&&&&&*&&+",
"&&&&=&-&&*&&&&&&=&&&&&&&&&&&&*&&&&&&&&&&&&&=&&&&&&&&=&&&&-&&&&@",
"&&&-=**&&&&&&&&;=&&=&&&&&&&*=&&&&&=&&&&&&&&&*&&&&&&*&&&&;-=&&=+",
"*&-&&&-=*&&&-&&&=&&&&&&&&&*&&&&&-&&&&=&&&&&&&&&*&&&&&*&&&&&&-=+",
"&&&&&&&&-&&&&&&&&&&&*&&&&&&&&&*=&&&&&&*&&&&=&&&&-&-&&&&&-&&--&$",
"&&&&=&&&&*&-&&-&&&&&**&&&&&-&&&=&&&&*&--&&&&&&&&&&&&&&&=&*&&*=@",
"&&&&&&&&&*&&&&&&&&&&&&&&&&&&&;-&*&&&&&&&&&-&&&=&&&&&&&-&-;&&&&+",
"&=&*&&&&&&&-&=&-=*&&&*=&&=&&&;&=&&=*&&&&&&&&&-&&&&-&&&*&&&=&+++",
"&&*&&&&=&&&&&&&&&-&=&&&&&&&&&&&&&&&&&&**&&&&&&&&&=*&&-&&&&&&@++",
"&&*&&&&&&*&&&&&&=&&&&-&&&&&&=&&&--&&&&&-=&&=&&&&&&&&&&&=-&#+++:",
"*&&&&&&&*&&&&&&&&&&&&&&-&&&-=&&&&&&&;&*&&&&=&&&&&&&&&&&&&*+$++:",
"++++++++++++++++++++++#++++++%++$@#+++++++@+$++%+++$#+++$+#+:::"
};
