/* XPM */
static char *result[] = {
/* columns rows colors chars-per-pixel */
"63 64 16 1 ",
"  c #323C56",
". c #333C56",
"X c #323C57",
"o c #333C57",
"O c #333D57",
"+ c #566C86",
"@ c #576C86",
"# c #566D86",
"$ c #566C87",
"% c #576C87",
"& c #94B0C2",
"* c #95B0C2",
"= c #94B1C2",
"- c #94B0C3",
"; c #95B0C3",
": c None",
/* pixels */
"$=&&&&&&&&&&&++::::::::::::::::::::::::::::::::::::::::::::::::",
"+&&&&&&&&&&&*#+oooooo+++++++++$++++++++$#++++++++++++++#@++ooOo",
"@=&&=&&&&&&-&++ooX.oX+++@++%#+$++++++#@+++$++++++#+++++++++ooo.",
"$&&&&*&&;&&&&++.Oo.++++%+#$++@++++#+@+++++++++#%++@+++@+++++$Oo",
"+&*&=&&&&&&&-++oooo+++#++++++@++@++@+++++++++++++#@++@+#++++$Oo",
"+&&-&&&&-&&&-#@oO++++@+++++@++++@+#++#+$++++$++@+#+++@+++$+$++%",
"+&-&=-&&&&&&&++oo++++++@++++#$+#++++++@++++#++#+++++#+$+++#++++",
"+=&&&&&&&&=&&++oO+$++++++++++%+#$$#++++$++$++++++++++@+++@+@+++",
"+=&&&*&&*&&&*++.o+$++$+@+++++++++$++++++++++++++$+++++$+++#++++",
"+&**&&&&&&&&&++.o+$#+$+@+++$++++++++++$$+++#++#+$#+@#++++@#+@+$",
"+&&&&&-&&&&&&+$oO++#++++++++++++$++@$++++@++$$++++++++++++++++@",
"+=-&&&&&&&&*&++oo+++++++++$+#+++++++++@+++++++#$+++++++#+++++++",
"+&&&&&-&&&&*&++oO$++@+++$#+++@++++#++#++++++$++++++$#@$+++#++++",
"$&*&&&&&&&&&-++ O+$++@+@$+++++@++++++#+$#@$+$+++@+++++++++#$+++",
"@&&&=*&&*&&&&++oo+++++#@+++$++++++++++@+++$++++++#+++++#++#@++@",
"+&*&&&&&&&&&-++oO+++++#++++++++++++++++$+++++$+++++$+++++++++++",
"$&&&&&&&*&&*&#@.o++#+++++++++++#+$+++++++++++++++++++$+++++@+#+",
"+&&&&&&&&&&&&++oo++++@+++++++@+++$#+++++++$#+++@++++++++@$+++++",
"@&&&&&&&*&&&&++ o+$+++++++@++@$++@++$++++++#+++++#++#@++++#++++",
"+&*&&&&&;&&&&++oo+++@++++++++++++++@$+++#++++++++++@++$++@#+++@",
"+&&&&&&&&&&&&++oO@+++%+@+++$+$+++$+$++@@++++@+++++@$++++@++@+#@",
"@&&&&**=-&&&&++oo%+#@+++%+@$#@+++++@+++++++#+$+++++$++++$$+@+#+",
"+=&&&&&&&&&&&++oo$$+++#++#++++++$++++++++++++$+@@++++++#++++$++",
"+&&&&&&&&&&*&#+oo$$++++++++++@%+++#$+++$++$++++++++++++++$+++++",
"+&&&&&&&&&&&*++oo++#+$+++++%+++++@+++#++#+++@+#++#++++++++++++@",
"+&&&=&&=-&=&-++oo@$+++#+$++++++++$++++++++++++#+++++++++@+++@#+",
"+&&&&&&&&&&&&+@oO@$+@+#@++++#+++++++++++#@+#+++++++$+++++++++++",
"+&*&&&&=&&&&&++.o@@+++++$++++++++@#+++@+++$++$+@@+++++++++#++++",
"+&&-&&&&&-&&-++oO++++@++++++++++@++@+#++#++++++++++++++++++++++",
"+&&&&&&&;&&&&+@oo+++++#+$#@++@+#+++@++++#+++++++++@+++$#++++++@",
"+&&&&&&&&-&&&++oO++#++++++++++++@++++++++@+#+++@+++++@+++++++++",
"+&&&&&&&*-=&-++oo+++++++++++++++@+++++@++++++++++++++++++++++++",
"+=&&&&&&&&&&&++.o+++++++++++++$++++++++$+++#++#+++%++++++++++++",
"%&&-&&&=&&&&-++oo++++++$++++++$#++#%+++$++++@$+$++++++++++++++@",
"+&&&=-&&&&&&&+@oo@+#+$#$++++#++++++++#@$#++++++$+#+++$+++++++#+",
"+&-&=&-&*&&&&+%oO%+++$++@++++++++++++++$++++++++$#++#+++++#++++",
"+&&&&&&&&&&&&++oo$+++++@+++$++++++++$#+++$+++$+++++$+@@++++@$++",
"$&&&&&-&&&&&&++oO+++@+#+++@+++++++#++++++++++++@++++++++++++++@",
"+&&&&&&&&&&&-++.O@@#@+++++++++++@++$$+++++++$+#++++++++++++++#+",
"+&*&&&&&*-&&-#+oo++#+++%++++++++++++$++@#++#++#+$++$+$+++++++++",
"+&*&=&-=&&&&&+@Xo++++++++#$++++++++++#++++++@++$++++++$++++++++",
"+&*&=&&=&-&&&++.O@++@$+++#++++++++++$++$+@$++++++++++@+++++++++",
"%&&&&&&=-&=&&#+oo$++++++++++#@+#++#+++++++++++#+$++$++$#+++@+++",
"+&&&&&&&&;&&&++oooo+++#+++++++$+++++$+@+++++++#+++$++@+++$+++oo",
"@=&&&&&&&-&&&++oOXo+++++++++++@#+++++#@+#+++@+++++@++@+++$+++oo",
"+=*&&&&=*&&&*++oo.ooo+++++@+#@$+++++++@+++++++++++++#+$++++Xoo.",
"+=&&&&&&&&&&-#+oooooo+#+++++++@++++@$+++#++#++#++++$+@$++++..Oo",
"+=&&&&&&&&&&&#+ooooOoooooooooooO.ooooooooooooooooOXoooooooooooo",
"+&&&&&&&&&&&&++.oooooooooOo.oooooooooo ooooOo.Oooooooo.o.ooooOo",
"$&&&&&&=&-&&&&&@++++++#@$#++++$+@++@+++$++++++++++@++++++++@+#+",
"+&&-&&&&;&&&&&&++$+#++#@++@+++@++++++++%+++#+$++@++@+++#+++++#+",
"+&&&&&&&&&&&&&&&&&&&&&&&&=&&=&&&&&&&&&&&&&&&*;=&&=&&&&&&&&=*&&&",
"+=&-&&&&&&&&&&&&&&&&&-&&&&&&=*&=*&&*&&&&&*&&*&&&&&&;&&&&&&=&;&&",
"$=-&&&&&&&&&&&&-&&-&&&&&&&&&&&&&&&&&&&&&&&&&&&=*&&&&&*&&&&=&&=&",
"@&&&&&-&&&&*&&&*&&*&&&&&&&&&&&&=-&&&&=&&&&&&&&=&&&&&=&&&*-&-&&&",
"+&&&&&&&&&&&&&*&=&&&&&&*&&&&&&&=*&&&&&&&&&-&&-&*&&&&=&&&&&&&-&&",
"+&&&&&&=&&&&&&&&&&&&&&&&&&&&=*&&&&&&&&&&=&&=&&&&&&&&&;&&&&&*&&&",
"+&&&=*&=&&&*&=&&&&&=&-&&;&&-&&*&&&=&&&&&&&&&&&&&&&&-&;&&&&&&&&&",
"+&&&&&&&&-&&&&&&&&&&*&&&&&&*=**=&&=&&&--&&-&&&&&-&&*&&&&&&&*&&*",
"+++&&&&&&&&&&=&&=&&&&&&&&&&&&&&&&-&&&=&&&&&&&-=&-&&&&&-&&&&&&&&",
"+++-&&&&&-&&&=&&=&-=*&&&&&*&&&&&&&&&-&&&&&&&&&&&&&*&&&*&&&&&&&&",
":++++&&&&&&-&&*&&&&=&&=&&&&&&&&&&&&;&&&&&&&=&&&&&&*&&&&&&&&&&&&",
":++++*&&*&=&&&&&&&-&&&&-&&*&&&&&&&&&&=&&&&&&&&&&&=&&&&*&&&=&&&&",
":::+++%+++++++@$++++@+++++++#@$++$+++++$+@++++#+$++$+++++++++++"
};
