/* XPM */
static char *result[] = {
/* columns rows colors chars-per-pixel */
"63 64 13 1 ",
"  c #333C56",
". c #323C57",
"X c #333C57",
"o c #333D57",
"O c #566C86",
"+ c #576C86",
"@ c #566D86",
"# c #566C87",
"$ c #94B0C2",
"% c #95B0C2",
"& c #94B1C2",
"* c #94B0C3",
"= c None",
/* pixels */
"===OOO#OOOOOOOO#@OOO+OOOOOOOOO#OO#OOOOOOO+OOOOOOOOOOOOOOOOOOOOO",
"=OOOO%$$$$$$$$$$$$$$$$$$$$%$$$$$$$$$$$$$$$$$$$$$$$$$$$$$$$$$$$$",
"=OOOO$$&$$$$$$$$$$$$$$$$$$$$$$$$$$$$$$$$$$$$$$$$$$$$$%$$$$$$$$$",
"OO+$$$$$$*$$$&$$&$$$$$$$$$$$$$$$$$$$$$$$$$$$$$$$$$$$$$$$$$$$$$$",
"OOO$$$$$$$$$$$$$$$$$$$$$$$$$$$$$$*$$$&$$$$$$$$$$$$$$$$$$$$$%$$$",
"O$$$$$$$$*$$$$$$$$$$$$$$$$$$$$$$$$$$$$$$$$$$$$$$$$$$$$$$$$$$$$$",
"O$$$$%$&$$$$$$$$$$$$$$$$*$$$$$$$$$$$$$$$$$$$$$$$*$$*$$$$$$$$$$$",
"O$$$$$$$$$$$$$$$$$$$$$$$$$$$$$$$$$$$$$$$$$$$$$$$$$$$$$$$$$$$$$$",
"O$$$$$$$$$$$$$$$$$$$$$$$$$$$$$$$$$$$$$$$$$$$$$$$$$$$$$$$$$$$*$$",
"O$$$$$*$$$$%$$$$$$$$$$$$$$$$$$$$$$&$$$$$$$$$$$&$$$$$$$$$%*$$$$$",
"O$$$$$$$$$$$$$$$$$*$$$$$$$$$$$$$$$$$$$$$$$$$$$$$$$$$$%$$$$$$$$$",
"O$$$$$$$$$$$$$$$$$$$$$$$$$$$&$$$%$$$$$$$$$$$$$$$$$$$$$$$$$$$*$$",
"O$$$$$$$$$$$$$$$$$$$$$$$$$$$$$$$$$$$$$$$$$$$$*&$$$$$$$$$$$$$$$$",
"O$$*$$$$$$$$$$$O@OOOOOOOOOOOOOOOOOOOOOOOOOOOOOOOOOOOOOOOOOOOO@O",
"O$$$$$$$$$$$$$$OOOOOOOOOOOOOOOOOOOO+OOOOOOOOOOOOOO+OOOOOOOOOOOO",
"O$$$$$$$$$$$$OO XXXXXXXXXoXXXXXXXXXXXXXXXXXoXXXXXXXXXX XXXXXXoX",
"O$$$$$$$$$$$$OOXXXXXXXXXXXXXXXXXXXXXXXXXXXXXXXX.XXXXXXXXXXXXXXX",
"O&$$$$$$$$$$*OOXoXXXXOOOOOOOOOOOOOO+OOO#OOOOOOOOOOOOOO#OOOOXXXX",
"O&$$$$$$$$$$$OOXXXXXXOOOOO+OO+#OOOOOOOOOOOOOOOOOOOOOOO#OOOOXXXX",
"O$$$$$$$$$$$$OOXXXXOOOOOOOOOOOO@OOOOOOOOOOO@OOOOOOOOOOOOO#OOOXX",
"O$$$$$$$$*$$$OOXXXXOOOOOOOOOO+OOOOOO#OOOOOOOOOOOOOOOOOOOO#OOOXX",
"O$$$$$$$$$$$$OOXXOOOOOOOOOOO@OOOOOOOOOOOOOOOOOOO#OO#OOOOOOO+OOO",
"O$%$$$$$$$$$$OO X+OOOOOOOOOOOOOOOOOOOOOOOOO@OOOOOOOOO+OOOOOOOOO",
"O&$$$$$$$$$$$O+XXOOOOOOOO@OOOOOOOOOOOOOOOOOOOOOOOOOOOOOOOOOOOOO",
"O$%$$$$$$$$$$OOXXOOOOOO+OOOOOOOOOOOO#OOO@OO@OOOO#OOOOOOOOOOOOOO",
"O$$$$$$$$$$$*OOXoOO@+OOOOOOOOOOOOOOO#OOOOOOOOOOOOOOOOOOOOOOOOOO",
"O$$$$$$$$$$$$OOXXOOOOOOOOOOOOOOOOOOOOOOOOOOOOOO+OOOOOOOOOOOOOOO",
"O$$$$$$$$$$$$OOXXOOOOOO+#OOOOOOOOOOO#OOOOOO@OOOOOOOOOOOOOOOO#OO",
"O$$$$$*$$$$$$O+Xo+OOOOOOOOOOOOOOOOOOOOOOOOOOOOOOOOOOOOOOOOOOOOO",
"O$$$$$$$%$$$$OOXXOOOOO@OOOOOOOOOOOOOOOOOOOOOOOOOO@OOOOOOOOOOO@O",
"#$$$$$$$$$$$$OOXXOOOOOOOOOOOOO#OOOO+OOO#OOOOO#OOOOOOOOOOOOOOOOO",
"O$$$$$$$$$$$$OO XOOOOOOOOOOOOOOOOOOOOOOOOOOOOO@OOOOOOOOOOOOOOOO",
"O$$$$$$$%*&$$OOXXOOOOOOOOOOOOOOOOOOOOOOOOOOOOOOOOOOOOOOOOOOOOOO",
"O$$$$$$$$$$$$OOXXOOOOOOOOOOOOOOO+OOOOOOOOOOOOOO+OOOOOOOOOOOOOOO",
"O$$$$$$$%$$$$OOXXOOOOOOOOOOOOOOOOOO+OOOOOOOOOOOOOOOOOOO@OOOOOOO",
"O$$*$$$$$$$$$OOXoOOOOOOOOOOOOOOO+OOOO@OO@OOOOOOOOOOOOOOOOOOOOOO",
"O$%$$$$$$$$$$OOXX+OOOOOOOOOOOOOOOOOOOOOOOOOOOOOOOOOOOOOOOO@OOOO",
"O$$$$$$$$$$$$OOXXOOOOOOOOOOOOOOOOOOOOOOOOOOOOOOOOOO#OOOOOOOOOOO",
"O$$$$$$$$$$$*OOXXOOOOO@OOOOOOOOOO#OOOOOOOOOOOOOOOOOOOOOO+OOOOOO",
"O$$$$$$$$$$$$OOXXOOOO#OOOOOOOOOOOOOOO@OO@OO@OOOOOOOOOOOOOOOOOO+",
"O&$$$$$$$$$$$OOXXO#OOOOOOOOOOO#OOOOOOOO#OO#OOOOOOOOOOOOOO#OOOOO",
"O&$$$$$$$$$$$OOXXOOOOOOOOOOOOOOOOOOOOOOOOOOOOOO+OOOOOOOOOOOO#OO",
"O$$$$%$$$$$$$OOXXOOO+OOOOOOOOOOOOOOOOOOOOOOOO#OOOOOOOOOOO#OOOOO",
"O$$$$$$$$$$$$OOXXOOOOOOOOOOOOOOOO#OOOO+OOOOO+OOOOOOOOOOOOOOOOOO",
"O$$$$$$$$$$$$OOXXOOO+OOOOOOOOOOOOOO+OOOOOOOOOOOOOOOOOOOOOOOOOO+",
"O$$$$$$$$$$$$OO XOOOOOOOOOOOOO#OOOOOOOOOOOOO+OOOO@OOO+OOOOOOOOO",
"O$$$$$$$$$$$$OOXXOOOOOOOOOOOO+OOOOOOOOOOOO#OOOO+OOOOOOOOOOOOOO+",
"O$$$$$$$$$$$$OOXXOO@OOOOO@OOOOOOO#OOOOOOOOOOOOOOOOOOOOOOOOO+OOO",
"O$$$$$$$$$$$$OOXXOOOOOOOOOOOOOOOOOOOOOOOOOOOOOOOOOO#OOOOOOOOOOO",
"O$$$&$$$$$$$$OOXXOOOOO@+OOOOOOOOOOOOOOOOOOOOOOOOOOOOOOO@OOOOOOO",
"O$$$$$$$$$$$$OO oOOOOOOO#OOOOOOOOOOOO@OOO+OOOOOOOOOOOOOOOOOOOOO",
"O$$$$$*$$$$%$OOXoOOOOOOOOOOOOOOOOO@OOOOOOOOOOOOOOOO#@+OOOOOOOOO",
"O$$$$$$$$$$$$OOXXOOOOOOOOOOO@OOOOOOOOOOOOOOOOOOOOOOOOOO@OOOOOOO",
"O$$$$$*$$$$$$OOXXOOOOOOOOOOOOOOOOOOO#OOOO+OOOOOOOOOOOOOOOOOOOOO",
"O$%$$$$$$$$$$OO oOO@OOOOOOOOOOOOOOOOOOOOOOO@OO@+OOOOOOOOOO@OOOO",
"O&$$$$$$%$$$$OO XOO@OOO+OOOOOOOOOOOOOOOOOOOOOOOOO@OOOOOOOOOOOOO",
"O$$$$$$$$$$$$OOXX+#OOOOOOOOOOOOOO#@OOOOOOOOOOOOOOOOOOOOOOOO+OOO",
"O$$$$$$$$$$$$OOXXOOOOO@OOOOO@OOOOOOOOO+OOOOOOOOOOOOO@O#OOO@OOOO",
"O$$$$$$$$$$$$OOXo+OOOOO+OOOOOOOO+O@OOOOOOOOOOOOOO@OOOOOOO#OOOOO",
"O$$$&$$$$$$$$OOXXXXOOOOOOOOOOOOO+OO+OOOOOOO@OOOOOOOOOOOOOOOO#oX",
"O$$$$$$$%$$$$OOXXXXOOOOOOOOOO+OOO#OOOOOOOOOOOOOOOOOOOOOOOOOOOXX",
"O$$$&$$$$$$$$OOXX. X.OOO#OOO@OOOOOOOOOOOOOOOOOOOOOOOOOOOOO@XXXX",
"O$$$$$$$$$$$$O+XXXXXXOOOOOOOOOOOOOOOOOO#OOOOOOOOOOOOOOOOOOOXXXX",
"O$$$$$$$$$$$$OO================================================"
};
