/* XPM */
static char *result[] = {
/* columns rows colors chars-per-pixel */
"71 66 12 1 ",
"  c #566C86",
". c #576C86",
"X c #566D86",
"o c #566C87",
"O c #94B0C2",
"+ c #95B0C2",
"@ c #94B1C2",
"# c #95B1C2",
"$ c #94B0C3",
"% c #95B0C3",
"& c #94B1C3",
"* c None",
/* pixels */
" @OO@OO$OOOOO  ********************************************************",
" O@$O@O$OOO@+. ********************************************************",
"XO$OOOOOOOOOO  ********************************************************",
" OOOO$OOOOOOO  ********************************************************",
" OOOOO$O@OO@O  ********************************************************",
" OOOOO@O$OOO@  ********************************************************",
" OOOO+OOOOO%OX ********************************************************",
" $OO+OOOOOOOO X********************************************************",
" OOOOO@+%OOOO  ********************************************************",
" @OOOOOOO$@+O  ********************************************************",
" OOOOOOOOOOOOo ********************************************************",
" OOO+OOOOOOOO .********************************************************",
" O$OOOO@OOO+OX ********************************************************",
" OO$OOOOOOOOO  ********************************************************",
"XO$@O$OOOOO$O  ********************************************************",
" OO+OOOO++OOO  ********************************************************",
"o+O$OO$OOOOO+  ********************************************************",
" O$O#OOOO@O$Oo ********************************************************",
" OOOOOOOOOOO@  ********************************************************",
" OOOO@OOOO+OO X********************************************************",
" OO@OOOOOOOOO  ********************************************************",
"XOOO@OOOOOOOO  ********************************************************",
" OOOOOOOO%OOO. ********************************************************",
" OOO@OOOO+O$O  ********************************************************",
" @OO$OOOOOOO+X.********************************************************",
".+@OOOOOOOOOO X********************************************************",
" $OOOOOOOOOO@o ********************************************************",
"oOOOO+O@OOOO+  ********************************************************",
" OO$$OOOOOOOO  ********************************************************",
" OOOOOOO+OOOOo ********************************************************",
" OOOOOOOOO@O$  ********************************************************",
" O@OO@OOOOOOO  ********************************************************",
"X$OOOO+OOOOOO o********************************************************",
" O+O@O@O+OO+Oo ********************************************************",
" OOOOOOOO+OOO X********************************************************",
" OOOOOOO$OO$O  ********************************************************",
" OOOOOOOOOOOO  ********************************************************",
" OO+OO$O@O$@Oo ********************************************************",
" $OOOOOOO@O$@  ********************************************************",
"o@OOOO+OOOOOO  ********************************************************",
" OOOO@OOOOOOO  ********************************************************",
" OOO@$OOOO@O@  ********************************************************",
" OOOO+OO+OOO@  ********************************************************",
"o+OOOOOO@OOOO  ********************************************************",
" OOOOO+OOOOOO  ********************************************************",
" OOOOOOOOOOOO  ********************************************************",
" OOOOOO+@OOO+oX********************************************************",
" OO@O$OOOOOO@o ********************************************************",
" O+OO$$$OOO+O  ********************************************************",
" O@+OOOOOO$OO  ********************************************************",
" +$O+$OOOOOO@  ********************************************************",
"oOOO&O@OOOOOO .********************************************************",
"oOOOOOOOOOOO+  ********************************************************",
" OOOO$OO+OO$O o********************************************************",
"o@OOOOOOOOOOO  ********************************************************",
" OOOOOOOOOOOO  ********************************************************",
" +O@O$@OOOOOO  ********************************************************",
" O$OOOOOO@O+O .********************************************************",
" OOOOOOOOOOOO  ********************************************************",
" OO@OOOOOOOOO  ********************************************************",
" OOOO+OOOOOOO .********************************************************",
".$OOOOOO@OOOO. ********************************************************",
"XOO++OOOOOOOO  ********************************************************",
".OOOO+OO$OO$Oo.********************************************************",
" OOO+O$+OOOO+  ********************************************************",
" +OOOOOOO@@OO o********************************************************"
};
