/* XPM */
static char *result[] = {
/* columns rows colors chars-per-pixel */
"64 64 23 1 ",
"  c #333C56",
". c #323D56",
"X c #333D56",
"o c #323C57",
"O c #333C57",
"+ c #323D57",
"@ c #333D57",
"# c #566C86",
"$ c #576C86",
"% c #566D86",
"& c #576D86",
"* c #566C87",
"= c #576C87",
"- c #566D87",
"; c #576D87",
": c #94B0C2",
"> c #95B0C2",
", c #94B1C2",
"< c #95B1C2",
"1 c #94B0C3",
"2 c #95B0C3",
"3 c #94B1C3",
"4 c None",
/* pixels */
"4444444444444444444444444444444444444444444444444444444444444444",
" OOOO$#####%%####*$#*##*##&##-#%*;$##$##$*%*=##=###$####$##oOOOo",
"OOOOO*$####$########*#*###*#####*##%###*######%#########$*$oOOOO",
" OO##%#####%##%####*%####%##*###*#####$$#####$#$#########*###OOO",
" XO#$%#%######*#######%###########%#######*%##*##############OOO",
"O####**#%*######*#$%*########-############*###$##%$#$=####%###$O",
"O%########*###%#######$#####$#########-%$###########%%#########O",
"O##$#*###*####$####%###*#######$###%########$####*#%###$$#####%O",
"O#$&%#####%#####*####**%#%#%#$###$*%########%#%%######$########O",
"O#=$#*#########*##########%##*##$*######################*#%###*O",
"O#####%#####$#*##$###################$#*#=*$##############*####O",
"O#########&####*#####*#######%#%$#######*%*##$$################O",
" #%$########$#######*$###*##-##%##%#########=$###*#########$###O",
"O###########$$##%###$#####################%=###################O",
"o==##########$#%###*##%$###$$#$*#########################*#-###o",
"o#$####$##$######$##*###$$######%#%###**######$##############=#O",
"O#%#*#%=####=####*%#%*#*######%#%####%###*#%######$####%#$####$O",
"o$######$###########%######%#-%###########$#*%#####%#$#%#######O",
"o###*##$$#######%%####$##%####%#$$$%#$##$#######$###%#####$####O",
"o#####*####*#####*############**###$#####*#####%$###%####%#*###O",
" ##*####%####*#####%#%##$#######$=##%###$##########%#*###*##*#%O",
"O*######%%&#*##%####%#####-####$###%####$#######$###%$*$######%o",
"O#####%#*####*##############$#####$###%###=*###############*%#*O",
"O#######**######-###$######%*#*$########*#$###########$#$%###$#O",
" ######$##################%#####*######*##%$########*###*%#####O",
"O###=##############*#%##%#$#######$*#%*%-#*#####%$$##*#$#######O",
"O#%$##########$%################$########%$##%%####$#######$###O",
"O##%######*##*#*###$###################$$$####*#######*########O",
"o###*=#######$#=####$#*########$###############%#######%##$##%#O",
"X##*############%########*##*#*#######%$#*##%######%#####$#####O",
"@########$####%#####$$*##*###*####-###*##*#######%####*####*##%O",
"O####*#######%##########*#######$####$$############%######*%%#*O",
"O##$*$#$$##$#*#$######%$%*######%#$#####-#####$####*########-##O",
"O$#############%#$######%#############%$#-#*#%*######*###*%#-#%O",
"O#*##-#######$#######&####################$###=########$##%*#-#@",
"O###############*#######%%#######$##%#####*###############$####O",
"O#######-#####-%#$#####*$########=###########$#######%#######*#O",
"O#*####%#############$#####$####%#######*#######$###*%#########o",
".%####%############*####%####%###########$=#%##*###########%###@",
"@*#####*####$#####*####%#$###$####$#%###$#######$##*#####$#####@",
"O##*##*##%##########*######*####%#*#######$##*=$#%$#########*##O",
"@##*#$##%##%###########*###*$###%####*$#%######&####%###*$###*#X",
"o#$###$#########$$&####%#$#####*%###*####$%#$##$###%#####$##%#%O",
"OOO%*########%*$#####%###%#%############*########*##%*%######OO ",
"OoO#*#######%*#**#$#####*#################$########*#$##$%###OOO",
"OOOOO##%*#%*%###$#*##-#*#######%##%###################**$##OOOOO",
"OOOOO##$####$#########%#*####$###%####%#%#**#%##$##$%#$##$#OOOOO",
"@O OOOOOOOOOOOOOOOOOOOOOOOOOOOOOOOOOOOOOOOOOO OOOOOOOOOOOO O+OO ",
" +oOOOOOO@O O @OOOOOOOOOOOO OOOOOOOOOOOOOO oOOOOOOO@O@OOOOOO OOo",
"#####################*###########$######*#######%###############",
"########=########%#%######$####%####*%#%########*######%#######%",
"::::::::::,::::::>,>::::::1:::,:2::>::,1:::1::,:,:::,1,:::::::::",
"1::>::::::>:::::::::::,,::,::,::::::::::1::::1::::::>:::::::::2:",
"<:::::::,::>:::::>:1:,:>,::>:,:>:>>::::,:::::,:>::,:::::::::::::",
">:::::,:::<:,::::::::1::1:>::::::>::1::::>::::::::,>::::::::::::",
":::>::>:::::1:,:>:::::::>:,:>:3::,::>:>:::::>::::::1:21:::::::::",
">::::,:::::::1::::::,:::::11:::>::::1:::::::>:::::::::::::::::,:",
":::::::::,::::::::,:::::>:1>:::>::::1:::::>:::::,::<::::::,:>:::",
">>:::1:::::1::::::::::>::11::::::::::::::::1::>1>1:::::::::::1::",
">:::,,::::::,:::::>::::::<,::>:::,::2:>::::::::::::1::,::::::::>",
",:::>:1::1:::3::::::::::::::,::::::::::::,:::,::2::::::::::::>::",
">::::2:::1::::::::2::::>:::>::::::<:::::::::>:,:::::::::::::::::",
">:1:::1:::::::::1:::::::::::::::>::>::<:::1>::::::::::11>:::::::",
"%$#########%*###########%##*####$######**#%##%#*%%#*##=###$##*##"
};
