/* XPM */
static char *result[] = {
/* columns rows colors chars-per-pixel */
"63 64 14 1 ",
"  c #1A1C2C",
". c #1B1C2C",
"X c #1A1D2C",
"o c #1A1C2D",
"O c #333C56",
"+ c #323C57",
"@ c #333C57",
"# c #333D57",
"$ c #38B764",
"% c #38B765",
"& c #A6F070",
"* c #A7F070",
"= c #A7F170",
"- c #A7F071",
/* pixels */
"                  oX                          X          o     ",
"               o                                               ",
"    @@@@@@@@@@@@@@@@@@@@@@@@@@@@@@@@@@@@@@@@@@@@O@@@@+@@@@@@@@ ",
"    @@@@+@@@@@@@@@@@@@@@@@@@@@@#@O@@@@@@@+@@+@@@@@@@@@@@@@@@@@ ",
"  @@@@@@+@@@@@+@@@@@@@@@@@@@@@O@@@@@@@@@@@@@@@@@@@@@@@@@@@@@@@@",
"  @@@@O@@@@@@@@@@@@#@@@@@@@@@@@@@@@@@@+@@@@@@@#@@@@@#@@@@@@@@@@",
"  @@@@@@@@@@@@@@@@@@@@@@@@@@@@@@@@@@O@@@@@@@@@@@@@@@@@@@@@@@@@@",
"  @@#@@@@@@@O@@@@@@@+@@@@@@@@@@@@@@@@@@@@@@@@@@@@#@O#@@@@@@@@@@",
"  @@@@@#@@@@@@@@@@@@@@@@@@@@@@@@@@@@@@@@@@@@@@@@@@@@@@@@@@@@@@@",
"  @@@@@@@@@@@#@@@@@@@O@@@@@@@@@@@@@@@@@@@@@@@@@@@@@@@@@@@@@@@@@",
"  @@@@           .     .                                    @@@",
"  +@#@              .       X          o          .         @@@",
" X@@@@                         X              X o           @@@",
"  @@@@                            X                         @@@",
"  @@@@******-*******$$*&************************************@@+",
"  @O@@**************$$=****************-******=*************O@@",
"  @@@@O@+@@@@@@@@@@@+@@+@@@@@@@@@@#@@@@@@+@@@@@@@@@@@@@@@@@@@@@",
"  @@@@@@@@@@@@@@@@@@@@@@@@@@#@@@@@@@@@@O@@@@@@@@@@@@@@@@@@@@@@@",
"o @@@@@@@@@@@@@@@@@@@O@@@@+@@@@@@@@@@@+@@@O#@@@@@@@@@@@@@@@@@@+",
"  @@@@@@@@@@@@@@@@@@@@@@@@@@@+@@@@#@@@+@@@@#@@@+@@@@@@@@@@@@@@@",
"  @@@@                                                      @@@",
"  @O@@     .                               X                @@@",
"  @@@+                  o                                   @@@",
"  @@@@         o                     X    o                 @@@",
"  @@@@-******=****************************$$****************@@@",
"o @@@@*****&*********************-*&******$$**********-*****@@@",
"  @@@@@@@@@@@@@@@@@@@@@@@@@@#@@@@@@@@@@@@@@@@@@@@@@@@@@@@@@@@@@",
"  @@@@@@@@@@@@@@@@@@+@@+@@@@@@@@@@@@@@@@@@@@@@@@@@@@@@@@@@@@@@@",
"  @@@@@@@@@@@@@@#@@#@@@@@@@@@@@@+@@@@@@@@@@@@@@@@@@@@@@@@@@@@@@",
"  @O@@@@@@@@@@@@@@@@@O#@@@+@@@@@@@@@@@@@@@@@@@@@@@@@@@@@@@@@@@+",
"  +@@@o                                   o  o         X  X @@@",
"  @@@@      o  o      X                      o       .      @@@",
"  @@@@  .        .          X.                 .   o   X    @@@",
"  @@@@              .   o                           X.   o .@@@",
"  @@@@*=**********$$$$=&************************************@@+",
"o @@@@************$$$%********-*****************************@@@",
"  @O@+@@@@@@@@@@@@@@@@@@@@@@@@@@@@@@@@@@@@O@@@@@@@@@#@@@@O@@@@@",
"  @@@@@#@@@@@@@@@@@@@@@@@@+@@@@@+@@@@@@@@@@@@@@@@@+@@@@@@@@@@@@",
" X@@@@@@@@@+@@@@@@@@@@@@@#@@@@@@@@@@@@@@@@@@@@@@@@@@@@@@@@@@@#@",
"  @@@@O@@O@@@#@@@@@@@@@+@@@@@@@#@@@@@@@@@@@@@@@@@@@@@@O@@@@@@@@",
"  @@#@                                             o        @@@",
"oX@@@@                            X                  .      @@@",
"  @@@@         o                .oX                         @@@",
"  @@@@                          .                           @@@",
"  @@@@****************************$$$$**$$*****&************@#@",
"  @@@@****************************$$$$**$$******************@#@",
"  @@@+@@@@@@@@@@@@@@@@@@@@@@@@@#@@@@@@@@@@O@@@@@@@@@#+@@@@@@@@@",
"  @O@@@@@@@@O@@@@@@@@@#@O@@@@@@@@@@@@@@@@@O@@@#@@@@@@@@@@@#@@@@",
"  @@#@@@@@@@@@@@@@@@@@@@@#@@@@@@@@@@@@@@@@@#@@@@@@@@@@@@@@@@@@@",
"  @@@@@@@@@@@@@@@@@@@@@@@@+@@@@@@@@+@@@@@+@@@@@@@@@@@@@@@O#@@@@",
" X@@@@         o        o   X                  .            @@@",
"  @@@@                                  X                 X @@@",
"  @@@@                        o       .      o              @@@",
"  @@@@o          .                                          O@@",
"  @@@@**********=*****$$***-**********************&*********@@@",
"  @@#@****************$$*****&*************=*************-**@@@",
"  @@@@@@@@@@O@@@@@@@@@@@@#@@@@@@@@@@@@@O#@@@+@@@@#+@@@@@@@@@@@@",
"  +O@@O@@@@@@@@O@@@@@@@@@@@@@@@@@@@@@@@O@@@@@@@+@@+@@@@@@@@+@@@",
"  @@@@@@@@@@@@@@#@@@@@@@@@@@@@@@@@@@@@@@@@@@@@@@@@@@#@@#@O@@@@@",
"  @@@@@@+@@@@@@@@@@@@O@@@#+@@@@@@@@@@@@@@@@@+@@@@@@@@@@@@@@@@@@",
"  @@@@O@@@@@@@@@@@O@@@@@@@@@@@@@@@@@@@@O@@@@@@@@@@@O@@@@@@@@@@@",
"  @@@@@@@@@@@@@@@+@@@@@@@@@@@@@@@@@@@@@@@+@@+@@@@@@@@+@#@@@@@@@",
"    @@@@@@#@@@@@@@@@@@@@@@@@@@@@@@@@@@@@@@@@@O@@@@@@@@@@@@@@@@ ",
"    @@@@@@@@@@@@@@@#@@@@@@@@@@@@@@@@@@@@@+@@@@@@@@@@@@@@@@@@@@ "
};
