/* XPM */
static char *result[] = {
/* columns rows colors chars-per-pixel */
"64 64 16 1 ",
"  c #333C56",
". c #323C57",
"X c #333C57",
"o c #333D57",
"O c #566C86",
"+ c #576C86",
"@ c #566D86",
"# c #566C87",
"$ c #576C87",
"% c #566D87",
"& c #94B0C2",
"* c #95B0C2",
"= c #94B1C2",
"- c #94B0C3",
"; c #95B0C3",
": c None",
/* pixels */
"OOOOOOOOOOOOOOOOOOOOOOOOOOOOOOOOOOOOOOOO#OOOOOO#O@OOOOOOOOOOOOOO",
"&&&&&&&&&&&&&&&&-&&&&&&&&&&&&&&&&&&*&&*&&&&&&&&&&&&&&&&&*&&&&&&&",
"&&&&&&&&&-&&&&&&&&-&&&&&&&&*&&&&&&&&&&&&&&&&&&&&&&&&&&&&&&&&&&&&",
"&&&&&&&&&&&&&=&&&&&&&&&&&&&&&&&&&&&&&&&&&&&&&&&&*&&&&&&&&&&&&*&&",
"&&&&&&&&&&&&&&&&&&&&&&&&&&=&&&&&&&&&*&&&&&&&&&&&&&&-&&=&&&&&&&&&",
"&&&&&&&&&&&&&&&&&&&&&&*&&-&&&&&&&&&&&&&&&&&&&&&-&&&&&&&&&&&&&&&&",
"&&&&&&&&&=&&&&&&&&&&&&&&&&-&&&&&&&&&&&&&&&&&&&&&&&&&&&=&&&&&&&&&",
"&&&&&&&&&&&&&&&&&&&&&&&&&&&&&&&&&&&&-&&&&&&&*&&&&&&&&&&&&&&&&&&&",
"&&&&&&*&&&&&&&&&&&&&&&&&&&&&&&-&&&&&&&&&&&&&&&&&&&&-&;&&&&&&&&&&",
"*&&&&&&&&&&&&&&&&&&&&&&&&&&&&&&&&*&&&&&=&&&&&&&&&&&&&&&&&&&&&&&&",
"&&&&&&&&&&&&&&&&&*&&&&&&=&&*&&&&&&&&&&&&&&&&&=&*&&&&&&&&&&&&&&&&",
"&&&&&&&&&&&&&&&&&&&&&&&&&&=&&&&&&&&&&&&&&&&&&-&&&&&&&&&&&&&&&&*&",
"&&&&&&&&&&&&&&&&&&=*&&&&&&&&&&=&&&&&&&&&&&&&&&&&=&&&&-=&&&&&&&&&",
"OOOOOOOO#OOOOOOOO@O@OOOOOO+OOOOOOOOO#@OOOOOOOOOOOOOOOOOOOOOOOOOO",
"OOOOOOOOOOOOOOOOOOOOOOOOOOOOOOOOOOOOOOOOOOOOOOOOOOOOOOOOOOOOOOOO",
"XXXXXXXXXoXXXXXXXXXXXXXXXXXXXXXXXXXXXXXXXX .XXXXXXXXXXXXXXXXXXXX",
"XX XXXXXXXXX XXXXXXXXXXXXXXXXXXXXXXXXXXXXXXXXXXXXXXXXXXXXXXX.XXX",
"XXXXXOOOOOOO+OOOOOOOOO@OOOOOOOOOOOOOOOOOOO##O@OOOOOOOOOOOOOXXXXX",
"XXXXXOO@OOO#@OOO+OOOOOOOOOOOOOOOOOOOOOOOOOOOOOOOOOOOOOOOOOOXXXXX",
"XXXO#OOOOOOO@OO#OO+OOOOOOOOOOOOOOOOOOOOOOOOOOOOOOOOOOOOOOOOOOXXX",
"XXXOOOOOOOOOOOO+OOOOO@OOO@O@OOOOOOOOOOOOOOOOOOOOO#OO@#@OOOOOOXXX",
".OOOOO+OOOOOOOOOO+OOOOOOOOOOOOOO@OOOOOOOOOOOOOOOOOOOOOOOOOOO@OOX",
"XOO#OOOOOOOOOOOOOOOOOOO#OOO#OOOOOOOOOO+OOOOOOOO+OOOO@OOOOOOOO#OX",
"XOOOOOOOOOOOOOOOOOOOOOOOOOO#OOOOOOOOOOOOOO+OOOO+OO+OOOOOOOOO#OOX",
"XOOOOOOOOOOO+OOOOO#OOOOOOOOOOOOOOO+O@OOOOOOOOOOOOOOOOOOOOOOOOOOX",
"XOOOOO@OOOOOOOOOOOO#OOOOOOOOOOOOOOOOOOOOOO+O@OO#OOOOOOOOOOOOOOOo",
"XOOOOOO@OOOOOOOOOOOOOOOOOOOOOOOOOOOOOOOOOOOOOOOOOOOOO@OOOOOOOOOX",
"X+OOOOOO#OOOOOOOOOOOOOOO+OOOOOOOO+@OOOOOOOOOOOOOOOOOO@OOOOOOO#OX",
"XOOOOOOOOOOOOOOOOOOOOOOO@OOOOOOOOOOOOOOOOOOOOOOOOOOOOOOOOOOOOOOX",
"XOOOOOOOOOOOOOOOOOOOO@OOOOOOOOOOOOOOOOOOOOOOOO$OOOOOOOOOOOOOOOOX",
"XOOOOOOOOOOOOOO@OOOOOOOOOOOOOOOOOOOOOOOOOOOOOO#OOOO@OOOOOO@O@OOX",
"XOOOOOOOOOO+OOOOOOOOOOO+OOOOOOOOOOOOOOOO@OOOOOOOOOO#OOOOOOOO#OOX",
"XOOOO#OOOOOOOOOOOOOOOOOOOOOOOOOOOOOOOOOOOOOOOOOOOOO@OOOOOOOO@OOX",
"XOOOOOOOO+OOOOOOOOOOO+OOOOOOO#OOOOOOOOOOOOOOOOOOOOOOOOOOOOO#OO@X",
"XOO#OOOOOOOOOOOO@OOOOOOOO#OOOOOOOOOOOOOOOOOO@OOOOOOOOOOOOOOOOOOX",
"XOOO#OOOOOOOO+O#OOOO+O#OOOOOOOOOOOOOOOOOOOOOOOOOOOOOOOO@OO+OOOOX",
"XOO@OOOOOOOOOOO#OOOOOOOOOOOOOOOOOOOOOOOOO+OOOOOOOOOOOOOOOOOOOOOX",
"XOOOOOOOOOOOOOOOOOOOOOOOOOOOOOOOOOOOOOOOOOOOO@OOOOOOOOOOOOO+OOOX",
"XOOO$OOOOOOOOOOOOOOOOOOOOOOOOOOOOOOOOOOO#OOOOOOOOO+OOOOOOOOOOOOX",
"XOOOOOOOOOOOOOOOOOOOOOOOOOOOOOOOOOOOOOOOOOOOOOOOOOOOOOOOOOOOOOOX",
"XOOOOOOOOOOOOOOOOOOOOOOOOOOOOO#+OOOOOOOOOOOOOOOOOOOOOO+OOOOOOOOX",
"XOOOOO@OOOOOOOOOOOOOOOOOOOOOOOOOOO+OOO@OOO+OOOOOOOOOOOOOOOOOOOOX",
"XOOOOOOOOO+O#OOOOOOOOOOOOO%OOOOOOOO@OOOO+OOOOOOO+OOOO+OOOOOOOOOX",
"XOOOOOOOOOOOO#OOOOO@OOOOOOOOOOOOOOOOOOOOOOOOOOOOOOOOO#OOO#OOOO@X",
"XOOOOO#OOOOOOOOOO#OOOOOOOOOOOO#OOOO+OOOOO#OOOOO@OOOOOOOOOOO#OOOX",
"XOOOOOOOOOOOOOOOOOOOOOOOO@OOOO@O+OOOOOOO+OOOOOOO+OOOOOOOOO+OOOOX",
"XOOOOOOO+OOOOOOOOOOOOOOOOOOOOOOOOOOOOOOOOO+OOOOOOOOOOOO@OOOOOOOX",
"XOOOOOO#OOOOOOOOOOOOOOO#OOOOOOOOOOOOO@OOOOOOOOOOOOOOOOO@OOOOOOOX",
"XOOOOOOOOO+OOOOOOOOO#OOOO+OOOOOOOO@OOOOOOOOOOOOOOOOOOOOOOOOOOOOX",
"X#OOOOOOOOOOOOOOOOOOOOOOOOOOOOOOOOOOOOOOOOOOOOOOOOOOOOOOO#O#OOOX",
"XOOOOOOOOOOOO+OOOOOOOOOOOOOOOOOOOOOOOOOOOOO+OOOOOOOOOO+OOOOOOOOX",
"XOOOOOOOOOOOOOOOOOOO#OOOO#OOOOO@OOOOOOOOOOOO+OOOOOOOOOOOOOOOOOOX",
"XOOOOOOOOO+OOOO#OOOOOOOOOOOOOOOOOOOOOOOOOOOOOOOOOOOOOOOOOOOOOOOX",
"XOOOOO@OOOOOOOOOO+OOOOOOOOOOOOOOOOOOO+OOO+O+OOOOOOOOOOOOOO#OOOOX",
"XO#OOOOOOOOOOOO#OOOOOOOOOOOOOOOOO#OOOOOOOOOOOOOOOOOOOOOO#OOOOOOX",
"XOOO@OOOOOOOOOOOOOOOOOOOOOO@OOOOOOO@OOOOOOOOOOOOOOOOOOOOOOOOOOOX",
"XOOOO#OOOOOOOOOOOOO@OOO#OOOOOOOOOOO@OOOOOOOOOOOOO#OOOOOOOOOOOOOX",
"XOOOOOOOOO#OOOOOOOOOOOOOOOOOOOOOOOOOOOOOOOOOOOOOOOOOOOOOOOOOOOOX",
"XOOOOOOOOOOOOOOOOOOOOOOOOOOOOOOOOOOOOOOOOOOOOOOOOOOO+OOOOOOOOOOX",
"XXXOOOO@OOOOOO#OOOOOOOOOOOOOOOOOOOOOOOOOOO#OOOOOOOOOOOOOOOOOOXXX",
"XXXOOOOOOOO@OOOOOOOOOOOOOOOOOOOOOOOOOOOOOOOOO+OOOOOOOOOOOOOOOXXX",
"XX XXOOOOOOOOOOOOOOOOO#OOO#OOOOOOOOOOOO#OOOOOOOOOOOOO+OO+OOXXXXX",
"XXXXX+OOOOOOOOOOOOOOOOOOOOOOOOO@O+OOOOOOOOO#OOO+OOOOOOOOOOO.XXXX",
"::::::::::::::::::::::::::::::::::::::::::::::::::::::::::::::::"
};
