/* XPM */
static char *result[] = {
/* columns rows colors chars-per-pixel */
"32 31 32 1 ",
"  c #1A1C2C",
". c #1B1C2C",
"X c #1A1D2C",
"o c #1A1C2D",
"O c #1B1C2D",
"+ c #1A1D2D",
"@ c #323C56",
"# c #333C56",
"$ c #333D56",
"% c #323C57",
"& c #333C57",
"* c #323D57",
"= c #333D57",
"- c #245840",
"; c #245841",
": c #346A5C",
"> c #346B5C",
", c #38B664",
"< c #38B764",
"1 c #39B764",
"2 c #A6F070",
"3 c #A7F070",
"4 c #A7F071",
"5 c #AADCBC",
"6 c #F4F4F4",
"7 c #F5F4F4",
"8 c #F4F5F4",
"9 c #F5F5F4",
"0 c #F4F4F5",
"q c #F5F4F5",
"w c #F4F5F5",
"e c None",
/* pixels */
"eeeeeeeeee67  66eeeeeeeeeeeeeeee",
"eeeeeeeeee96O 68eeeeeeeeeeeeeeee",
"eeeeeeeeee66. 6666eeeeeeeeeeeeee",
"eeeeeeeeee06o 6666eeeeeeeeeeeeee",
"eeeeeeee8766o 66  060676eeeeeeee",
"eeeeeeee6666  66o 666666eeeeeeee",
"eeeeee68      &&&&&&&&&&0666eeee",
"eeeeee66 o    &%&&&#%&%&6666eeee",
"eeee55>>>:  &&&&&&&%&&&&$&&&66ee",
"eeee55>>>>o &&&&&#&&&%&*&&&&66ee",
"ee66;;23>>. &&&&    X     68eeee",
"ee86;;32>>  &&=&  oXoo    68eeee",
"ee68-;;;>>  &&.   X.1133  66eeee",
"ee66;-;;>>  &&   X o,<33 .66eeee",
"ee06X &&==  oXO   o 3333o 66eeee",
"ee66  &=&&        X 3333oX66eeee",
"eeee66 .    &@.        o66eeeeee",
"eeee68X     &&   o  O.  66eeeeee",
"ee66  %=&&  &&&& X    66eeeeeeee",
"ee6q  &&&#o &&=&  Xoo 76eeeeeeee",
"ee66  X &&#=68    +     66eeeeee",
"ee67   o%%&&66       o. 60eeeeee",
"ee66    &&&&&&6766  XO    66eeee",
"ee86  . &&%&&&7666XX.  oo 68eeee",
"eeee6wo &&&&&&&&86 X O    X 66ee",
"eeee66 .&%&=&&&&86 ..       0wee",
"eeeeee66&&&&  ,<6606   o  <,66ee",
"eeeeee68&%&#  <<6676o   . <<86ee",
"eeeeeeee76&&  2466ee66 . X3367ee",
"eeeeeeee66%&+ 2386ee66 X  3266ee",
"eeeeeeeeee66o  o67eeee66    66ee"
};
