/* XPM */
static char *result[] = {
/* columns rows colors chars-per-pixel */
"32 31 32 1 ",
"  c #1A1C2C",
". c #1B1C2C",
"X c #1A1D2C",
"o c #1A1C2D",
"O c #1B1C2D",
"+ c #1A1D2D",
"@ c #323C56",
"# c #333C56",
"$ c #333D56",
"% c #323C57",
"& c #333C57",
"* c #323D57",
"= c #333D57",
"- c #245840",
"; c #245841",
": c #346A5C",
"> c #346B5C",
", c #38B664",
"< c #38B764",
"1 c #39B764",
"2 c #A6F070",
"3 c #A7F070",
"4 c #A7F071",
"5 c #AADCBC",
"6 c #F4F4F4",
"7 c #F5F4F4",
"8 c #F4F5F4",
"9 c #F5F5F4",
"0 c #F4F4F5",
"q c #F5F4F5",
"w c #F4F5F5",
"e c None",
/* pixels */
"eeeeeeeeeeeeeeee66  76eeeeeeeeee",
"eeeeeeeeeeeeeeee86 O69eeeeeeeeee",
"eeeeeeeeeeeeee6666 .66eeeeeeeeee",
"eeeeeeeeeeeeee6666 o60eeeeeeeeee",
"eeeeeeee676060  66 o6678eeeeeeee",
"eeeeeeee666666 o66  6666eeeeeeee",
"eeee6660&&&&&&&&&&      86eeeeee",
"eeee6666&%&%#&&&%&    o 66eeeeee",
"ee66&&&$&&&&%&&&&&&&  :>>>55eeee",
"ee66&&&&*&%&&&#&&&&& o>>>>55eeee",
"eeee86     X    &&&& .>>32;;66ee",
"eeee86    ooXo  &=&&  >>23;;68ee",
"eeee66  3311.X   .&&  >>;;;-86ee",
"eeee66. 33<,o X   &&  >>;;-;66ee",
"eeee66 o3333 o   OXo  ==&& X60ee",
"eeee66Xo3333 X        &&=&  66ee",
"eeeeee66o        .@&    . 66eeee",
"eeeeee66  .O  o   &&     X86eeee",
"eeeeeeee66    X &&&&  &&=%  66ee",
"eeeeeeee67 ooX  &=&& o#&&&  q6ee",
"eeeeee66     +    86=#&& X  66ee",
"eeeeee06 .o       66&&%%o   76ee",
"eeee66    OX  6676&&&&&&    66ee",
"eeee86 oo  .XX6667&&&%&& .  68ee",
"ee66 X    O X 68&&&&&&&& ow6eeee",
"eew0       .. 68&&&&=&%&. 66eeee",
"ee66,<  o   6066<,  &&&&66eeeeee",
"ee68<< .   o6766<<  #&%&86eeeeee",
"ee7633X . 66ee6642  &&67eeeeeeee",
"ee6623  X 66ee6832 +&%66eeeeeeee",
"ee66    66eeee76o  o66eeeeeeeeee"
};
