/* XPM */
static char *result[] = {
/* columns rows colors chars-per-pixel */
"64 63 26 1 ",
"  c #1A1C2C",
". c #1A1C2D",
"X c #333C56",
"o c #323C57",
"O c #333C57",
"+ c #333D57",
"@ c #245841",
"# c #346A5C",
"$ c #346B5C",
"% c #356B5C",
"& c #A7F070",
"* c #566C86",
"= c #576C86",
"- c #566D86",
"; c #566C87",
": c #6EB29D",
"> c #6FB29D",
", c #40A6F6",
"< c #41A6F6",
"1 c #41A6F7",
"2 c #72EFF7",
"3 c #73EFF7",
"4 c #94B0C2",
"5 c #95B0C2",
"6 c #94B1C2",
"7 c #94B0C3",
/* pixels */
"4444444444444444444444444444644444444444447444444644444444444444",
"4446444444444444544444444444444444544444444446444474444444444444",
"4444444445444444444444464444444444445444444444444444444464444444",
"4444444444444444444444444444444447444444447644644444444444444444",
"4444444444444444444444444444444444444444444444474444444444474544",
"4444744444744444444444444444444444444444444444444444444444464444",
"4444444444644444444444444444444444444444444444447447444444444444",
"4444444444444544444444544444444444444544444444544444444444444474",
"4444444444444444444445444444744444444744444444444744444444444744",
"7444444444444444444444444444444444444444444444444444454644444444",
"4444444474444444444444444444444544544544444444444444444444444444",
"4444444444444765444444444744444444444444444444444464444464444444",
"*******-**********;********************************;***-**-**-**",
"****=******;**;-******=****************-***=****-***************",
"OOOOO+OO*****;**;**;**************************************OOoOOO",
"OOOOOOOO******=***;**********************=****************OOXOoO",
"OOOOoO**OOOOOOOOOOOOOOOOOOOOOOOOOOOOOOOOoOOOO+OOOOOOOOOOOO**OOOO",
"OOOOOO**OOOOOOOOOOOXOOOOOOOoOOOO+OOOOOOOOOOOOOO+OO+OOOOOOO**oOOO",
"OOOO*=OOOOOOOOOOOOOOOOOOOOOOOOOO  OOOOOOOoOOOOOOOOOOOOOOOOOO**oO",
"OOOO**OOOOOOOOOOOOOOOOOOOOOOOXOO  OO+OOOOOOOOOOOOOOOOOOOOOOO**OO",
"oO-*OOOXOO46544444444444444444OO  OO44444444444444444444OOOOOO**",
"OO**OOOOOO44444444444444464444OO  +O44444444444444444544OOOOOO**",
"OO**oOOO4454447444444444444444OO  OO4444474446444444444444OOOO**",
"OX-*OOOO4444444444444446446444OO  OO4444444444745444444444OOOX**",
"OO**+O444444444444444444444444OO  OO444744444444744444444445OO**",
"OO**OO444444444444444444444444OO  OO444444444444444444444444OO**",
"OO**OO44444444444444  OO33<<<<<<<<<<<<<<33OO  44444544444444OX**",
"O+**OO44444444574444  OO33<<<<<<<1<<<<<<33XO  44444444444444OO**",
"OO**OOOOXO44644444>>@@$$32<<,<<<<<<<<<<<33$$@@>>44444444OOOOOO**",
"OO**OOOOOO44444444:>@@$$33<<<<<<<<<<<<<<33$$@@>>54444644OoOOOO**",
"OO**OoOOOO44444444>>&&$$33<1<<<<<<<<<<<<33$$&&>>44444444OOOOOO**",
"OO**OOOOOO44444444>>&&$$33<<,<<<<<<<<<<<33$$&&>>44444444OOoOOO**",
"OO**OOOO+O44444444>>@@$$33<<<<<<<<<<<<<<33$$@@>>44444444OOOOOO**",
"OO**OOOOOO44444464>>@@#%33<<<<<<<<<<<<<<33$$@@>>44444444OOOOOO**",
"OO**OOOOOO4444444445  OO333333333333333333OO  4444444464OOOOOO**",
"OO**OOOOOO4444444444  OO333333333333333333OO  4444444444+oO+OO**",
"XO**OOOOOO4444444444             .            4444444444OOOOOO**",
"Oo**OOOOOO4444444744                          4444444444OOOXOO**",
"OO**O+OOOO44444444444444544444OOOOOO44447444454444444444OOOOOO**",
"OO*;OOOOOO44444444444444444444O+OOOO44474446446444444444OOOOOO**",
"OO**OOOOOO4444444444444445444444OO4444444444444444445444O+OOOO**",
"OO**OOOOOO4444444444444444444444+O4444444444644444444444OOOOOX-*",
"OO**OOOOOO4444444444444444444474OO4446474444444444446444OOOOOO**",
"OO**OOOOOO4444464444444444444444OO4444444444445444465744XOOOOO**",
"OO**OOOOOO4444444444444447644444OO4444444444444444644444OOOOOO-*",
"OO**OOX+OO4444444444444444444444OO4444444444444444444444OOOoOO=;",
"OO**OOOOOO4444444444444464444444OO5444444444444444444444OOOOOO**",
"OO**OOOOOO4444444444444444444444OO4444444444444444447444OOOOOO**",
"OO**OOOOoX4544444444574446444444OO4444444444444444444444OOOOOO**",
"OO;*OOOOOO4444444444444444444444OO4444444444445444444445OOOOOO**",
"OO**OOOO44OO44444644444444444444OO74444444444444444474oO44OOOO**",
"OO**OOXO44OO44444444444444444444OO44444444444444444444OO44OOOO**",
"OO**OOOO44OOOOOOoOOOOOOOOOOOOOOo**OOOOOOOOOOOOOXOOOOOOOO44OOOO;*",
"OO**OOOX44OOOOOOOOOOOOOOOOOOOOOO*=OOOOOOOOOO+OOOOOOOOOOO44OOOO**",
"OO**OOOO44OOOOOOOOOOoOOOOOOOOOO+**OOOOOOOOOOOOOOOOOOOOOO44OOOO**",
"OO**OOOO44OOOOOOOOOOOOOO+OOOOOOO**OOOOOOOOOOOOOOOOOOOOOO44OOOO**",
"OO**OOoO44OOOOOOXOOOOOOOOOOOOOOO**OOOOOOO+OOOOOOOOOOOOOO45O+OO**",
"OO*;OOOO47OOOOOXOOOOOOOOOOOOOOOO**OOOOOOOOOOOOOOOOOOOOOO44OOOO**",
"OO;-OOOO44OOOOOOoOOOOOOOOOOOOOOO**OOOOOOOOOOOOOOOOOOOOOO44OOOO*-",
"OO**OOOO44OOoOOOOOOOOoO+OOOOOOOO*=OOOOOOOOOOOOOOOOOOOOOO44XOOO**",
"OO**+OOOOO+OOOOOOoOOOOOOOOOOOOOO**OOOOOO+OOOOOOOOOOOOOO+OOOOOO*;",
"OO**OOOOOOOOOOOOOOOOOOOOOOXOOOOO**OOOOOOOOOOOOOOOOOOOOOOOOOOOO**",
"****************************;-***=***************;******-*******"
};
