/* XPM */
static char *result[] = {
/* columns rows colors chars-per-pixel */
"63 64 16 1 ",
"  c #1A1C2C",
". c #1B1C2C",
"X c #1A1D2C",
"o c #333C56",
"O c #323C57",
"+ c #333C57",
"@ c #333D57",
"# c #566C86",
"$ c #576C86",
"% c #566D86",
"& c #566C87",
"* c #94B0C2",
"= c #95B0C2",
"- c #94B1C2",
"; c #94B0C3",
": c None",
/* pixels */
"####%####&%##############################$###################%$",
"******;*=******************************************************",
"*****************=********=************************************",
"****************************-*;******-*********=***************",
"**********-*******;********************************************",
"*****=********=********=*-*****************************-*******",
"****-****************;*******=****-**************-***=*********",
"***************;****************=*-****************************",
"***;**************************************;********************",
"****-*;********;***********;***********************;***********",
";**************************************************;**;********",
"********=***********************=******************************",
"************;***************-=***********=*****************=;**",
"##$###&##########$##$#########&##############&#########%####&##",
"############################%#&#########%###############$######",
"+++o@++++################%################&##############&#+o++",
"+++++++++######&#######################################%###++++",
"+++++++##+++++++++++O+++++++++++++++++++++++O++++++++++++++##++",
"+++++++%#++++++++++++++++++o+++++++++++++++++++++++o+++++++##++",
"+++++##@+++++::::::::::::::::::::::::::::::::::::::::::++++++%#",
"+++o+##+++++o::::::::::::::::::::::::::::::::::::::::::++++++##",
"#++##O+++++++  ::::::::::::::::::::::::::::::::::::::  ++++++++",
"#++##++++++++  ::::::::::::::::::::::::::::::::::::::  ++++++++",
"#++##++++**++  ::::::::::::::::::::::::::::::::::::::  ++;*++++",
"#++##++++**++  ::::::::::::::::::::::::::::::::::::::  ++;*++@+",
"#++##++***-++::::::::::::::::::::::::::::::::::::::::::++*-**++",
"#++##++*=**+o::::::::::::::::::::::::::::::::::::::::::++****++",
"#++&%++X.    ::::::::::::::::::::::::::::::::::::::::::   X  @+",
"#++##++      ::::::::::::::::::::::::::::::::::::::::::X     ++",
"#++##+o++++  :::::::::::::::::::::::::::::::::::::::::: .++++++",
"#++##O+++++  :::::::::::::::::::::::::::::::::::::::::: .o+O+++",
"#++##++++++  ::::::::::::::::::::::::::::::::::::::::::  +++o++",
"#++##++++++  ::::::::::::::::::::::::::::::::::::::::::  ++++++",
"#++##++++++  ::::::::::::::::::::::::::::::::::::::::::  ++++++",
"#++##O+@+++  ::::::::::::::::::::::::::::::::::::::::::  ++++++",
"#++##++@+++## .::::::::::::::::::::::::::::::::::::::  ##o+++++",
"#@+##++++o+##  ::::::::::::::::::::::::::::::::::::::  ##++++++",
"#++##++++++    ::::::::::::::::::::::::::::::::::::::   .++++++",
"#@+##++++++.  .::::::::::::::::::::::::::::::::::::::.   ++++++",
"#++##++++++++  ::::::::::::::::::::::::::::::::::::::  +++++o+O",
"#++##O++++@++  ::::::::::::::::::::::::::::::::::::::  ++++++++",
"#++##++++++**::::::::::::::::::::::::::::::::::::::::::**+++o++",
"#++##+o++++**::::::::::::::::::::::::::::::::::::::::::*=++++++",
"#++##++++++**::::::::::::::::::::::::::::::::::::::::::**++++++",
"#++##++++o+**::::::::::::::::::::::::::::::::::::::::::-*++++++",
"#++##++++++**::::::::::::::::::::::::::::::::::::::::::**++++++",
"&++##++++++**::::::::::::::::::::::::::::::::::::::::::**++++++",
"#++##++++++**::::::::::::::::::::::::::::::::::::::::::-*++O+++",
"#++&#+o++o+**::::::::::::::::::::::::::::::::::::::::::**++++++",
"#++##++++++**::::::::::::::::::::::::::::::::::::::::::**++++++",
"#++##++++++**::::::::::::::::::::::::::::::::::::::::::**++++++",
"#++##++++****++::::::::::::::::::::::::::::::::::::::++****+++O",
"#++##O+++****++::::::::::::::::::::::::::::::::::::::++****++@+",
"&++&#++++****+O::::::::::::::::::::::::::::::::::::::++****++++",
"#++##++@+***;++::::::::::::::::::::::::::::::::::::::++****++++",
"&++##++++****++::::::::::::::::::::::::::::::::::::::+o****O+++",
"#+O#%O+++;***++::::::::::::::::::::::::::::::::::::::++****++++",
"#++##++++*-=*++::::::::::::::::::::::::::::::::::::::++****++++",
"#++##++++****++::::::::::::::::::::::::::::::::::::::O+****++++",
"#++##++++;***++::::::::::::::::::::::::::::::::::::::++****++++",
"#++##+o++****++::::::::::::::::::::::::::::::::::::::++****++++",
"#++##++++++O+++::::::::::::::::::::::::::::::::::::::++++++++++",
":::::::::::::::::::::::::::::::::::::::::::::::::::::::::::::::",
":::::::::::::::::::::::::::::::::::::::::::::::::::::::::::::::"
};
