/* XPM */
static char *result[] = {
/* columns rows colors chars-per-pixel */
"16 16 92 1 ",
"  c #534820",
". c #544921",
"X c #554A22",
"o c #5A4E23",
"O c #5A4F23",
"+ c #5A4E24",
"@ c #5A4F24",
"# c #5A4E25",
"$ c #5A4F25",
"% c #5B4F25",
"& c #615427",
"* c #685928",
"= c #74642C",
"- c #77672E",
"; c #7A6A2F",
": c #7B6A2F",
"> c #736432",
", c #736532",
"< c #766733",
"1 c #766734",
"2 c #766834",
"3 c #7B6B30",
"4 c #7C6B32",
"5 c #7C6C32",
"6 c #7E6E33",
"7 c #827137",
"8 c #897532",
"9 c #8C7934",
"0 c #8D7934",
"q c #817139",
"w c #85753B",
"e c #86753B",
"r c #84733C",
"t c #85743C",
"y c #85753C",
"u c #86753D",
"i c #87773D",
"p c #917F3C",
"a c #907D3E",
"s c #958037",
"d c #968037",
"f c #92803D",
"g c #988238",
"h c #998339",
"j c #9F893B",
"k c #9B8848",
"l c #A79043",
"z c #B79D42",
"x c #B79E45",
"c c #B89E45",
"v c #BAA044",
"b c #BFA548",
"n c #BAA459",
"m c #BAA559",
"M c #C6AC4E",
"N c #C7AD4E",
"B c #C9AC48",
"V c #CEB04B",
"C c #D4B74E",
"Z c #D5B74E",
"A c #DBBC4E",
"S c #DDBE4F",
"D c #C2A950",
"F c #C4AB51",
"G c #C5AB51",
"H c #CEB45B",
"J c #CDB45C",
"K c #DABD57",
"L c #D0B866",
"P c #D2BA67",
"I c #D3BB67",
"U c #D5BC65",
"Y c #D7BD67",
"T c #D9BF67",
"R c #D5BD68",
"E c #DCC060",
"W c #DDC060",
"Q c #D9C06A",
"! c #D9C06B",
"~ c #D9C16B",
"^ c #DDC46A",
"/ c #DFC56B",
"( c #DAC16C",
") c #DBC26C",
"_ c #DFC66F",
"` c #E2C86F",
"' c #E2C770",
"] c #E2C870",
"[ c #EFD370",
"{ c #FADE7D",
"} c #FBDF7D",
"| c None",
/* pixels */
"||||||||||||||||",
"||||||||||||||||",
"||||||||||||||||",
"||||||||||||||||",
"||||$#++O|||||||",
"|||=37uyq|||||||",
"||&9xJ!~m,.ooO@$",
"||&sCE'{^p4eiw6;",
"||&gVlk_[MFY)UDz",
"||&hB8>L[NGY(TKA",
"||&hB8,P/f5erabS",
"||&gVlk]R1.oX*jv",
"||&dZW`}I2 |||-:",
"||&0cHQQn<|||||%",
"|||=37utq|||||||",
"||||$#++o|||||||"
};
