/* XPM */
static char *result[] = {
/* columns rows colors chars-per-pixel */
"32 32 12 1 ",
"  c #1A1C2C",
". c #1A1D2C",
"X c #1B1D2C",
"o c #1A1C2D",
"O c #1A1D2D",
"+ c #323C56",
"@ c #333C56",
"# c #333D56",
"$ c #323C57",
"% c #333C57",
"& c #323D57",
"* c #333D57",
/* pixels */
"  .o  o    .           o  XO    ",
"  %%@%%%%%%%%$%*%%%%*%$%*%*%%%% ",
" %%%%%%$%%%%%%*%%%%*%%$%%%**%%%%",
" %%%%%%%%@%%@@%%+%%*%%%$%%%%%%%%",
" %%%%$%%%%%%%%*%%%%%%%%%%%@%*%*%",
" @$%%%%%%*%%@%%%*%%%%%@%%%%%%%%%",
" %%%%%%%%%%%%%*%%%%+*%%%%%%@$%$%",
" %%**%$@%%%$$%%$%@%$@%%%%%@%%$%%",
" %%%%%@%%%%*%%$%%$@$%$%%%%%%@%%%",
" %$%@$*%%%%%%@%%*%%%%%%%%@%@$%%%",
" @%%%*%%%%%%%%%@%%%%%%%%%%%%%%%%",
" %*%@%%%%%%%$%%%%%%%*%**%%%%%@%%",
" %%*%%%%%%@%%%%%@%%%%%%%%%%$*@%$",
" %*%%%%*%@%%%%%%%@%&*%@@%%@*%%%%",
" *%&%%%%%#%%%%%*%$@@%%*%%$*%%%%$",
" @%%%%%$%@%%%%%%%%%%%%%%%%%%%%%%",
" *%%%%%%%%%%%%%%%%%%%%%%%%%%@%%%",
" %@%%@*$%$%%*%%%%%%%%%%%@$$$%%%%",
" %*%%*%%@%%%*%%$%@%%%%%%%%$@%%%%",
" %%%%%$%%**%%%**@$%%$*@%**&%%%*%",
" %%@%%%%$%*%%%@%%@$$%%#%%%%%%@+%",
".%%%%*%*%%%%%%%%*%%%%%%%%%*@%%*%",
".%%%%&%%@%%%%%@$%*$@$%%*%%**%$$%",
".%%%%%%%*%%%%&*%%%%$%%%%$%@@%%%%",
" $%%%%*%%%%$%%$%%%%$*%%%%%%%%*%%",
" %%%%%%$%%%%%%%%%%%%%$%@$%+%%%*$",
" %%%*%%%%*%@%%$@$%$%%%%%$%%%%%%%",
" %$%%%%%%@%%$$*%$%%@%%$%%%%%*%%%",
" %%%%***%*%%%%@%%%%%%%%%%$*%%$$%",
" %%%%%@%%%%%*%%%%%%*%@*%%@*$%%%%",
" %$%@%%%%%%%%$%%@%%%%%%%%%%$%*%%",
"  %%%%%%%$%%%%$%%%%%%%$%%%%%%%% "
};
