/* XPM */
static char *result[] = {
/* columns rows colors chars-per-pixel */
"16 16 18 1 ",
"  c #5E5226",
". c #5F5226",
"X c #5E5326",
"o c #5F5326",
"O c #5F5227",
"+ c #5E5327",
"@ c #5F5327",
"# c #D6B84C",
"$ c #D6B84D",
"% c #D7B84D",
"& c #D7B94D",
"* c #FCE07E",
"= c #FDE07E",
"- c #FCE17E",
"; c #FDE17E",
": c #FDE07F",
"> c #FDE17F",
", c None",
/* pixels */
",,,,,,,,,,,,,,,,",
",,,,,,,,,,,,,,,,",
",,,,,,,,,,,,,,,,",
",,,,,,,,,,,,,,,,",
",,,,,,,,,,,,,,,,",
",,,,,,,,,,,,,,,,",
",,,,,.@.,,,,,,,,",
",,,,.&==. .o ,,,",
",,,,.%.-$;*%.,,,",
",,,,O$O:.X.#.,,,",
",,,,.%>=.,,+o,,,",
",,,,, .o,,,,,,,,",
",,,,,,,,,,,,,,,,",
",,,,,,,,,,,,,,,,",
",,,,,,,,,,,,,,,,",
",,,,,,,,,,,,,,,,"
};
