/* XPM */
static char *result[] = {
/* columns rows colors chars-per-pixel */
"31 31 161 2 ",
"   c #0C0D1E",
".  c #06071A",
"X  c #0E101F",
"o  c #10111E",
"O  c #0C0E21",
"+  c #0E1122",
"@  c #0E132B",
"#  c #111222",
"$  c #13162A",
"%  c #14182E",
"&  c #1C1725",
"*  c #1E1532",
"=  c #151931",
"-  c #121B3F",
";  c #3A1F2E",
":  c #281839",
">  c #201A25",
",  c #1C2031",
"<  c #20212E",
"1  c #3E282C",
"2  c #3A242A",
"3  c #3D2131",
"4  c #472A2D",
"5  c #4C2E30",
"6  c #492A36",
"7  c #4D3030",
"8  c #5A333D",
"9  c #141D41",
"0  c #162045",
"q  c #192243",
"w  c #16224D",
"e  c #1A254E",
"r  c #162350",
"t  c #1B2651",
"y  c #1C2852",
"u  c #1F3152",
"i  c #3C3F4C",
"p  c #262E52",
"a  c #283154",
"s  c #283459",
"d  c #1F316E",
"f  c #223471",
"g  c #313F73",
"h  c #491E4F",
"j  c #471C4E",
"k  c #4D1F53",
"l  c #541554",
"z  c #561956",
"x  c #5B1E5B",
"c  c #581A57",
"v  c #5E215F",
"b  c #572659",
"n  c #493E54",
"m  c #47264F",
"M  c #763556",
"N  c #3E404E",
"B  c #244257",
"V  c #3D4459",
"C  c #40404D",
"Z  c #43465B",
"A  c #4C4E5A",
"S  c #484359",
"D  c #51525D",
"F  c #755959",
"G  c #525360",
"H  c #565D7B",
"J  c #754976",
"K  c #6E737E",
"L  c #736E74",
"P  c #914E3D",
"I  c #95513F",
"U  c #953C46",
"Y  c #AB554A",
"T  c #BD6649",
"R  c #D35A55",
"E  c #C0674A",
"W  c #C3684E",
"Q  c #CD6F56",
"!  c #ED7556",
"~  c #F57F57",
"^  c #FC8459",
"/  c #CD8E78",
"(  c #EB9274",
")  c #1F3681",
"_  c #243B84",
"`  c #293F86",
"'  c #28408B",
"]  c #2C47A2",
"[  c #2C4AA5",
"{  c #2E4EAF",
"}  c #304DA5",
"|  c #314EA9",
" . c #2D4EB1",
".. c #304FB1",
"X. c #3252B2",
"o. c #3C6AB0",
"O. c #3A69AE",
"+. c #777881",
"@. c #5166AF",
"#. c #5469AE",
"$. c #566CB3",
"%. c #5870BA",
"&. c #6479BA",
"*. c #6177BA",
"=. c #355AC5",
"-. c #3157CB",
";. c #345BCE",
":. c #3558C7",
">. c #355DD0",
",. c #395FD2",
"<. c #3C66D2",
"1. c #4163CC",
"2. c #447BD6",
"3. c #457DD8",
"4. c #5C79D2",
"5. c #825682",
"6. c #845A84",
"7. c #9B7B9B",
"8. c #51A3BF",
"9. c #4A86DC",
"0. c #6782D6",
"q. c #6883D6",
"w. c #6A85D9",
"e. c #6C88DC",
"r. c #5DB7E8",
"t. c #68D4F2",
"y. c #9B9A9F",
"u. c #9999A0",
"i. c #A89CAC",
"p. c #9EA5BD",
"a. c #A1A8BF",
"s. c #CEB3AC",
"d. c #879BDB",
"f. c #9FA9C0",
"g. c #A0A7C0",
"h. c #A2A8C0",
"j. c #A9B7DF",
"k. c #8AA1E5",
"l. c #A7B6E3",
"z. c #BAC2DE",
"x. c #C4C4C6",
"c. c #C4C6CC",
"v. c #CACACB",
"b. c #C6C8CB",
"n. c #D3CECD",
"m. c #C7C9D1",
"M. c #D1C5D1",
"N. c #D5C8D4",
"B. c #D8CCD8",
"V. c #D2D2D2",
"C. c #EEDAD2",
"Z. c #C7CEE2",
"A. c #C8CEE3",
"S. c #CBD3ED",
"D. c #CBD2E6",
"F. c #D1D8EC",
"G. c #D2DAF3",
"H. c #EEEEEC",
"J. c #FBF9F5",
"K. c #FCFBFA",
"L. c None",
/* pixels */
"L.L.L.L.L.L.L.L.L.L.L.L.B.M.M.M.M.M.M.M.M.M.M.B.L.L.L.L.L.L.L.",
"L.L.L.L.L.L.L.L.L.L.K.N.7.5.5.5.6.6.6.6.6.6.6.7.N.K.L.L.L.L.L.",
"L.L.L.L.L.L.L.L.L.L.K.N.5.l z x c c x c v z l 6.M.K.L.L.L.L.L.",
"L.L.L.L.L.L.L.L.L.L.K.B.6.z z v x v v v v z l J M.K.L.L.L.L.L.",
"L.L.L.L.L.L.L.L.L.L.c.i.J v b v k h k h j b J 7.M.K.L.L.L.L.L.",
"L.L.L.L.L.L.L.L.K.c.L n b v v h : * : * * A i.B.L.L.L.L.L.L.L.",
"L.L.L.L.L.L.L.L.K.V.+.n m b M M 8 5 3 3 4 F n.K.L.L.L.L.L.L.L.",
"L.L.L.L.L.L.L.L.J.H.V.u.n 6 Y Q W Y U U Y / C.K.L.L.L.L.L.L.L.",
"L.L.L.L.L.L.L.L.S.S.G.f.V 4 T ^ ^ ! R R ! ( s.z.L.L.L.L.L.L.L.",
"L.L.L.L.L.L.K.F.d.0.w.#.p 5 T ^ ^ ~ ! ! ^ Q F K m.K.L.L.L.L.L.",
"L.L.L.L.L.L.S.l.4.-.;.[ r 1 I E T T T T T P 2 N u.V.L.L.L.L.L.",
"L.L.L.L.J.S.d.4.1.;.>.[ y > 1 7 7 7 4 5 4 1 $ , N K v.K.L.L.L.",
"L.L.L.L.J.A.0.-.;.=.X.` q % 9 r r w r r r 0 = X . A x.K.L.L.L.",
"L.L.L.L.J.S.0.>.;.X.f q % q _ [ ] ] ] ] [ _ 0 X . A z.K.L.L.L.",
"L.L.L.L.K.Z.&.[ [ ' q % q f X.<.9.9.9.9.9.o.p < C K x.J.L.L.L.",
"L.L.L.L.J.c.H q e q = , ' X.:.3.r.t.t.t.t.8.B C y.n.L.L.L.L.L.",
"L.L.L.L.K.c.H - $ o # y | ,.;.2.r.t.t.t.t.8.B V a.G.L.L.L.L.L.",
"L.L.L.L.J.A.&._ - o o y | <.<.<.2.9.9.9.9.@.u p #.k.G.J.L.L.L.",
"L.L.L.L.J.S.w...f q % q ` | } ] ] ] ] ] ] _ , 9 ' &.Z.J.L.L.L.",
"L.L.L.L.J.S.q.=.X.' q % 9 p t e e e e e e w = @ : ` m.J.L.L.L.",
"L.L.L.L.J.S.4.;.;.[ y # # % q y e e e e y q % $ 9 H c.K.L.L.L.",
"L.L.L.L.J.A.q.-.;.] t # o q ' } } } } } | ' q 9 _ &.Z.J.L.L.L.",
"L.L.L.L.J.S.d.q.q.#.a o o q ` ..=.;.>.:.X.` q y [ e.S.J.L.L.L.",
"L.L.L.L.L.L.S.S.S.p.Z O   @ 9 d { ;.,.| f 9 $ t [ e.S.J.L.L.L.",
"L.L.L.L.L.L.J.K.K.m.+.r Z D D H &.e.e.%.g q % 9 _ &.Z.K.L.L.L.",
"L.L.L.L.L.L.L.L.K.V.%.@.g.b.x.m.D.G.F.j.%._ 0 % 9 H c.K.L.L.L.",
"L.L.L.L.L.L.L.L.K.z.$.@.g.v.b.c.x.x.v.a.$.' t o o D j.J.L.L.L.",
"L.L.L.L.L.L.L.L.L.L.s s Z G D G D D D Z a e L.L.L.L.L.L.L.L.L.",
"L.L.L.L.L.L.L.L.L.L.# # + + + + # + O + # # L.L.L.L.L.L.L.L.L.",
"L.L.L.L.L.L.L.L.L.L.L.L.$ + # # # # # # L.L.L.L.L.L.L.L.L.L.L.",
"L.L.L.L.L.L.L.L.L.L.L.L.$ $ $ # $ $ $ $ L.L.L.L.L.L.L.L.L.L.L."
};
