/* XPM */
static char *result[] = {
/* columns rows colors chars-per-pixel */
"23 31 120 2 ",
"   c #17171F",
".  c #171623",
"X  c #191925",
"o  c #151A2A",
"O  c #1A1C2C",
"+  c #111C36",
"@  c #1C1E32",
"#  c #241D34",
"$  c #2B1D3C",
"%  c #1C2036",
"&  c #1D233C",
"*  c #2A232F",
"=  c #232234",
"-  c #2C2533",
";  c #252539",
":  c #312431",
">  c #372832",
",  c #3B2B33",
"<  c #4B2F2D",
"1  c #573735",
"2  c #563738",
"3  c #734339",
"4  c #7A463A",
"5  c #7E483B",
"6  c #321E40",
"7  c #1E2541",
"8  c #1E2A51",
"9  c #192B5A",
"0  c #202746",
"q  c #202947",
"w  c #212748",
"e  c #21294C",
"r  c #3D2343",
"t  c #25364C",
"y  c #283E4E",
"u  c #222C53",
"i  c #232E58",
"p  c #24305D",
"a  c #202C60",
"s  c #263263",
"d  c #26356A",
"f  c #28366C",
"g  c #253875",
"h  c #293972",
"j  c #22367A",
"k  c #23397E",
"l  c #2B3D7C",
"z  c #45224D",
"x  c #572F48",
"c  c #522555",
"v  c #562559",
"b  c #5D275D",
"n  c #793442",
"m  c #793F4D",
"M  c #672D5C",
"N  c #6C325A",
"B  c #5F2660",
"V  c #8D503F",
"C  c #833D43",
"Z  c #884543",
"A  c #864D42",
"S  c #975145",
"D  c #9B5746",
"F  c #A35B46",
"G  c #BD4C53",
"H  c #AF5957",
"J  c #B05E51",
"K  c #CB5954",
"L  c #C76B4F",
"P  c #D36354",
"I  c #D16F51",
"U  c #DB7453",
"Y  c #E46B58",
"T  c #E37655",
"R  c #E37854",
"E  c #ED7C56",
"W  c #EF7359",
"Q  c #F07759",
"!  c #F97F59",
"~  c #F68159",
"^  c #FC825A",
"/  c #FF885B",
"(  c #2B3C82",
")  c #2D4084",
"_  c #2E438A",
"`  c #2F4692",
"'  c #304793",
"]  c #314A93",
"[  c #304798",
"{  c #31499A",
"}  c #334DA3",
"|  c #344FAA",
" . c #3551AC",
".. c #3654B4",
"X. c #3756B9",
"o. c #3857B9",
"O. c #3959BE",
"+. c #447CA6",
"@. c #3A5AC3",
"#. c #3B5ECB",
"$. c #3D5FD3",
"%. c #3C62C4",
"&. c #3D62CC",
"*. c #3F68C8",
"=. c #3D61D2",
"-. c #3E63D9",
";. c #406ACB",
":. c #509AAC",
">. c #4A85DD",
",. c #4C88DB",
"<. c #539BDD",
"1. c #56A5E5",
"2. c #5AACE6",
"3. c #5BAEEB",
"4. c #5DB5E9",
"5. c #5FB9EC",
"6. c #69D4EF",
"7. c #6DDFF1",
"8. c #6FE4F5",
"9. c None",
/* pixels */
"9.9.9.9.9.9.9.9.9.9.9.9.9.9.9.9.9.9.9.9.9.9.9.",
"9.9.9.9.9.9.9.9.9.9.9.9.9.9.9.9.9.9.9.9.9.9.9.",
"9.9.9.9.9.9.9.9.9.b b b b b b b b b b b 9.9.9.",
"9.9.9.9.9.9.9.9.b b b b b b b b b b b b b 9.9.",
"9.9.9.9.9.9.9.9.b b b b b M b B b b b M b 9.9.",
"9.9.9.9.9.9.9.9.v b b B v c c c c c v v b 9.9.",
"9.9.9.9.9.9.9.# z b B v z $ $ $ $ $ 6 9.9.9.9.",
"9.9.9.9.9.9.o # 6 c M N x , * - : > , 9.9.9.9.",
"9.9.9.9.9.9.9.9.$ z m H J D Z n C S F 9.9.9.9.",
"9.9.9.9.9.9.9.9.+ * A R ~ E P G K T T 9.9.9.9.",
"9.9.9.9.9.#.-...9 * V E / ^ Q Y Q ! L 2 9.9.9.",
"9.9.9.9.#.#.=.o.d - 5 I R U U U U U D , o 9.9.",
"9.9.9.#.#.#.=.O.h = < 3 4 4 4 4 5 4 1 * o O O ",
"9.9.@.#.#.#.@. .d % O ; ; ; ; ; ; ; = @ O O O ",
"9.9.&.$.=.@.{ h 7 O 8 j k j j j j j a % O O O ",
"9.9.O.@.@. .f % O 7 l X.%.%.%.%.%.%.] q X O O ",
"9.9.l l l h 7 @ u l } &.>.1.2.2.2.2.+.t . . 9.",
"9.9.& & & @ O & l X.@.&.<.6.8.8.8.7.:.y X 9.9.",
"9.9.h p & . . & _ &.-.=.,.2.5.4.5.4.+.t 7 ` 9.",
"9.9.@.} s @ X & ) O.#.@.&.*.*.*.;.*.] q u } #.",
"9.9.=.@.` s & % s ) _ ( ( ( ( ( ( ( s & 7 h _ ",
"9.9.#.@.@.} p % @ & 0 & 7 7 & 7 7 & & O @ 7 7 ",
"9.9.#.#.&.o.f @ . O w s s s s s d s e % & i s ",
"9.9.#.#.&...d O X @ h | ............) 7 u [ X.",
"9.9.9.#.=. .u O . % p ] X.#.$.#.o.{ f & p  .-.",
"9.9.9.9.9.9.& O O O % e ( @.-.@.{ i @ @ p | =.",
"9.9.9.9.9.9.s p e O   O l @.;.#.{ d 7 % w ( { ",
"9.9.9.9.9.9. . .] 9.9.9.9.9.9.9.9. .( 7 @ 0 e ",
"9.9.9.9.9.9.{ { ) 9.9.9.9.9.9.9.l { ( e X X X ",
"9.9.9.9.9.9.u e 7 O O O O O X O & e e 9.9.9.9.",
"9.9.9.9.9.9.X O O O O O O O O O O X X 9.9.9.9."
};
