/* XPM */
static char *result[] = {
/* columns rows colors chars-per-pixel */
"16 15 20 1 ",
"  c #1A1C2C",
". c #1B1C2C",
"X c #1A1D2C",
"o c #1A1C2D",
"O c #5D275C",
"+ c #5D265D",
"@ c #5C275D",
"# c #5D275D",
"$ c #B13E52",
"% c #B03E53",
"& c #B13E53",
"* c #B13F53",
"= c #EF7D56",
"- c #EE7D57",
"; c #EF7D57",
": c #3B5DC8",
"> c #73EFF6",
", c #72EFF7",
"< c #73EFF7",
"1 c None",
/* pixels */
"1111111111111111",
"111111#@##@#1111",
"111111@##@O+1111",
"11111.#+  X11111",
"111111 -=&;11111",
"1111&&.=;;;X1111",
"111&&%oX. X o111",
"111*&oX&&*& X111",
"111   %&<,>X1111",
"111&X.&*&&&.:111",
"111*&    X.  111",
"111&$ .&&%$ %111",
"11111. X&&  &111",
"11111$1111% X111",
"11111  o   11111"
};
