/* XPM */
static char *result[] = {
/* columns rows colors chars-per-pixel */
"16 15 23 1 ",
"  c #1A1C2C",
". c #1B1C2C",
"X c #1A1D2C",
"o c #1A1C2D",
"O c #5D275C",
"+ c #5D265D",
"@ c #5C275D",
"# c #5D275D",
"$ c #B13E53",
"% c #EF7D56",
"& c #EE7D57",
"* c #EF7D57",
"= c #3B5DC8",
"- c #3B5CC9",
"; c #3A5DC9",
": c #3B5DC9",
"> c #72EFF7",
", c #73EFF7",
"< c #F4F4F4",
"1 c #F5F4F4",
"2 c #F4F5F4",
"3 c #F4F4F5",
"4 c None",
/* pixels */
"444444<2<<<14444",
"444443+#O+#O2444",
"44444<##+@##<444",
"4444<.O#  X14444",
"44441< *%$&34444",
"444<:-.%*&* <444",
"44<:::oX.o . <44",
"443-;oX:=-:  <44",
"44<  X;=,>, <444",
"44<:  :-::: :244",
"44<::oX.oX.oX144",
"442;: .=-:= ;<44",
"4443<. X::X.:244",
"4444<=213<;o <44",
"44444      44444"
};
