/* XPM */
static char *result[] = {
/* columns rows colors chars-per-pixel */
"32 32 23 1 ",
"  c #323C56",
". c #333C56",
"X c #333D56",
"o c #323C57",
"O c #333C57",
"+ c #323D57",
"@ c #333D57",
"# c #566C86",
"$ c #576C86",
"% c #566D86",
"& c #576D86",
"* c #566C87",
"= c #576C87",
"- c #566D87",
"; c #576D87",
": c #94B0C2",
"> c #95B0C2",
", c #94B1C2",
"< c #95B1C2",
"1 c #94B0C3",
"2 c #95B0C3",
"3 c #94B1C3",
"4 c #95B1C3",
/* pixels */
"o@o$#-=%###&#=#$##*&$*##*$#$%#o@",
"oO#*##-$##=#$=#%####*####*%$$##O",
".$##%%=#####&$#*%*#;###**#*####$",
"@*;%$##*##$#%##$#$##;%%$#$#%###%",
"o-**#%#%$#%*=%$-***#*%*#*-###$=#",
"O###%*#&$-**#*%#$&#%%####$%#&#*#",
" *$$=*##%=#**#%#-#%-###;####*$$%",
"o#**%##&$#$##$##$%$#*##=#*#%$#&#",
"o##*-*#%#%#$$#*###*#%###$%#=%*$&",
"O#=$###%;&&=#-$$$$$*&&*#$%*-#;%*",
"O##$-#$$=#=#*#$%#-###**%#*###--#",
"O##$*###%==###*#$%##*#####$$=###",
"X%*=#%-*=%%*####$#$#$%=######*##",
"O#&#$=*%%#####=#*#%####$##=*%-#$",
"+#*##&#$*#####%=$%#&##$##-$#*##*",
"o&$#$##%*####**&$#%*#$-###-%&%=#",
"O=###$%#=*####*=%$#*#%###%$#*$#$",
"O#$#**#$#*##;###;#%%#%%*%*%##$%*",
"X##%##*$###$*###=%-#-#$#%#-%#$%#",
"@##%#-##**#=##$-&$##$#$#####&#%#",
"O##*#*%#$#$###$$-*$*$-=##$&##=#%",
"O.$$#=$###$%$$=-#-######*##$%##.",
"OoO-#%*$###$######*##%*%#####*oO",
"OOoOXOO@OXOo.@+.O.OoO.O.@@.@O.OX",
"#=%$$###&%%=$*%##*#$*#&=%;$#%###",
"21::1:>13::21>:1::4::,::,,<:::::",
"<::::2::3:>:134::<11:::,:1:1>1,,",
">::::<:,:::2:>:>:,::1:::1<:<>2:2",
">,1:::>:2>,<<,::4::11,::<,:1:,:,",
":::::<:<11::::::2::::2:>3::1,>1:",
">>:<,,,:<:1:<:1>:::>1:::112::1>>",
"$&#####*$*###$#%###-##%*-=##$##*"
};
