/* XPM */
static char *result[] = {
/* columns rows colors chars-per-pixel */
"32 31 16 1 ",
"  c #566C86",
". c #576C86",
"X c #566D86",
"o c #576D86",
"O c #566C87",
"+ c #576C87",
"@ c #566D87",
"# c #94B0C2",
"$ c #95B0C2",
"% c #94B1C2",
"& c #95B1C2",
"* c #94B0C3",
"= c #95B0C3",
"- c #94B1C3",
"; c #95B1C3",
": c None",
/* pixels */
":::::::::::::::::::::::: #*%##$ ",
":::::::::::::::::::::::: $$$#-;O",
"::::::::::::::::::::::::o$###%#X",
"::::::::::::::::::::::::X-&%#$#X",
"::::::::::::::::::::::::.#$*###o",
":::::::::::::::::::::::: &$#*$#o",
"::::::::::::::::::::::::@$*#$#=o",
"::::::::::::::::::::::::.-*#**$.",
"::::::::::::::::::::::::O##;*#*+",
":::::::::::::::::::::::: #%&$%$O",
":::::::::::::::::::::::: ###&#=O",
"::::::::::::::::::::::::.=###&# ",
"::::::::::::::::::::::::X#*#%*#X",
"::::::::::::::::::::::::.#$$#=$ ",
"::::::::::::::::::::::::@$$#=$;X",
"::::::::::::::::::::::::O***#$#X",
":::::::::::::::::::::::: #*$$%#@",
":::::::::::::::::::::::: #*&&$$.",
"::::::::::::::::::::::::O#*$$#$ ",
"::::::::::::::::::::::::o==%#-#X",
"::::::::::::::::::::::::O#&*%## ",
":::::::::::::::::::::::: *#*##* ",
":::::::::::::::::::::::: #*-#%# ",
":::::::::::::::::::::::: -*#### ",
"::::::::::::::::::::::::@%**%&* ",
":::::::::::::::::::::::: ##=&##.",
"::::::::::::::::::::::::@%##$&- ",
":::::::::::::::::::::::: #*#%-#.",
"::::::::::::::::::::::::+$*##%-.",
"::::::::::::::::::::::::+$*$#%$.",
":::::::::::::::::::::::: %###&$X"
};
