/* XPM */
static char *result[] = {
/* columns rows colors chars-per-pixel */
"32 31 24 1 ",
"  c #323C56",
". c #333C56",
"X c #333D56",
"o c #323C57",
"O c #333C57",
"+ c #323D57",
"@ c #333D57",
"# c #566C86",
"$ c #576C86",
"% c #566D86",
"& c #576D86",
"* c #566C87",
"= c #576C87",
"- c #566D87",
"; c #576D87",
": c #94B0C2",
"> c #95B0C2",
", c #94B1C2",
"< c #95B1C2",
"1 c #94B0C3",
"2 c #95B0C3",
"3 c #94B1C3",
"4 c #95B1C3",
"5 c None",
/* pixels */
"%::>::3#@O$#$**&*###$;*#%#*%###@",
"%113:::%O%*$$##%%%###-$$%%%#%##*",
"=:1,,<:#O-%#$&##$;####*%#%#$#;$#",
"#:>:>:1*O%###&$*$$#*##$;##$%%-$-",
"*:>:<>1* &$%#*###*$%%#%#$###**#%",
"-:::,>,-O=;#%%##$&=#$##$%#=##*$&",
"=4>1::3=@#%##=##$*##=###%--#%##%",
"*,1:2:>#O#-%%%#&#*##*$$%#$#%%#%#",
"#31:,,3&o##%*#=*%$&%*$*#*#*##*$#",
"#:>>1:1#o#%#####$##$###&*##%&*##",
"-:1::,:& #$#;##%#$#=#$##-##$&#$*",
"*,:,:3>#@#$%#$-#=$&$&#=*-#$#$#%*",
"#::111,*@*$%%###%#%$######%%&*-#",
"*:>:::>#@*%#$#*$#%=#%=*$$###*$=#",
"*1111::#.%#*-*%#$##-$%$%&#*%#=#%",
"*>>:,:<$O%#%%#$*#*#-#%$$#*##&###",
"$1<:<:>$.-#=$#$$##*%###---$$*#$#",
"#1>,11:#X##&*#$#%#*$#######$###*",
"=3:1::2%O*$##%$#==%*#%%#-#####*#",
"*>:1::,# #%%###$#-%##%#*#*#####%",
"%3>>,::$OX#%$###%$#*##%#$-&##%&o",
"#<:1:>4$OO@%###&-*#%*##%$##=;#oO",
"$:1::::#@O@oO@OOoO@Oo.OoOO@+O@+.",
"*><::,,,**$#==##*&#$##*#####$#=*",
";:2,:::,:1>2:<:3>>,::,:1::>1:,2>",
"%::::1:>:<1<:>::<,:,3,:1>::::>42",
"$,,:1:2:<>:::::33>::,,>11,:2:,,1",
"*:::::::>>::::<:>,1:>:,:,1,3::<:",
"%;4:>>>1:,:,:111,2:,:>::31:2>:,:",
"5$%>,:12,3<::::23::1>>:2>,111>,>",
"55##;%$###%*##$$#$$&##=%##=&#;=%"
};
