/* XPM */
static char *result[] = {
/* columns rows colors chars-per-pixel */
"32 31 20 1 ",
"  c #323C56",
". c #333D56",
"X c #323C57",
"o c #333C57",
"O c #333D57",
"+ c #566C86",
"@ c #576C86",
"# c #566D86",
"$ c #576D86",
"% c #566C87",
"& c #576C87",
"* c #566D87",
"= c #94B0C2",
"- c #95B0C2",
"; c #94B1C2",
": c #95B1C2",
"> c #94B0C3",
", c #95B0C3",
"< c #94B1C3",
"1 c None",
/* pixels */
"11++++++++++++++++++++++++@$+@%+",
"1+#=======:==;=,;======>=======>",
"+@>========;=====>===-==;======-",
"+=====;=======;=-=>==-===-====:=",
"+=;=====;>======;=====:>========",
"+=====;==;======-===;;==;>=====,",
"%=>;===;=>=,===;=-==========>=>=",
"+--=====++@+%%+++#++++++++++++++",
"@======+OoooooooXoooo.oooooXoooo",
"+====-=+ooo#+%+#++++++++++++%+oo",
"#;=====+oo++@+@++++++++++#@++++o",
"+======+ +#+++++++#++++++++++++#",
"&<====,#o+#+++++%+#++#++#+@+++++",
"+======+o+++%++++++@++++++++++++",
"+=-====+X#+++++++++++++++#++++++",
"@======+o++++++++++++++@++++#+++",
"+>=>===+o+++#%++@%+%+#++++%++&+#",
"#=-====+O+#+@++@+++++++@+++@++&+",
"+===>==+o%@+#+++++#++@+++++++++%",
"%==;===+o+@+++++@+#@+++++#++@+++",
"+>=====@o+++@++++++++++#++++++++",
"+===>=>+o+++++++++++++++++++++++",
"+===;;=+X++++++%+$+#++++++%++*++",
"+-=====+o+#++++++++@+++++++++@++",
"%--===>&o+++++++++++@++++##++++#",
"*======+o@#+#+++@+%+@+++++++++++",
"+======+X+#++%++++@+++++++++++++",
"+======%o++++#+++++%++++++++++@+",
"@=>====+o+#+++++++++++%++++++%++",
"+><;===+o+++++++#@+++%@+++#%++++",
"#======+oo+++++++++++@+++++++++o"
};
