/* XPM */
static char *result[] = {
/* columns rows colors chars-per-pixel */
"32 32 16 1 ",
"  c #333C56",
". c #323C57",
"X c #333C57",
"o c #333D57",
"O c #566C86",
"+ c #576C86",
"@ c #566D86",
"# c #576D86",
"$ c #566C87",
"% c #576C87",
"& c #566D87",
"* c #94B0C2",
"= c #95B0C2",
"- c #94B1C2",
"; c #95B1C2",
": c #94B0C3",
/* pixels */
"OOOOOOOOO+OOOOOOOO$OOOOOOOOOOOOO",
"***=-*****:*-**=*************:**",
"*********:***********:**-:*:-**;",
"*********==**-**-***:-*****:*-*-",
"*****-*******=*****:*****-***:*=",
"**********=*=*-****:***-*:*:**-*",
"*****************=:**-*******=**",
"OOOOOOOOO@@OO+OOOOO+OOOOO@+O@OOO",
"XXXX XXXXoX.XoX XXXXX XXXo XX XX",
"X.XOOOOOOOOOOOOOOOOOOO$OOOOOOO.X",
"XXOOO++OOOOOOOOO@@OOOOOOOOOO@OO ",
"XOO$OOOO#O+OOOOOOO+$OO$OOOOO+OO@",
"XOOOO&OOOOO+OO+$O+OOOO+$OOOO+O@O",
"X$O@OO$+OOO+OOOOOOOOOOOO@O@@O+OO",
"XOOO$OOOOOOOOOOOOO@OOOOO@O@OOOOO",
"XOOOOO@OOO+O+OOOOOO$O#OO+OOO$OOO",
"XOOOOOOO$OOOOOOOOOOOO+&OOO&OOO$O",
"XOOOOOOOOOOOOO@$OO@OOO+OOO+OOOO$",
"X+OOO$O@OOOOOO%$OOOOOOO+OO$$O$OO",
"XOOOOOO$OO@OOOOOOOOOOO@OO@OOO$OO",
"XOOO$OOOOO$OOOOO+OOOOOOOOO++OOOO",
"X$OOOO+O+OOOOOO@OOOOOOO+O$O@OO$O",
"XO%OOOO@O+OOO$++O+O$O@$OO@O$O@O$",
"XOOO$OOOOOO++O$OOOOOOOOOOOOOOO+O",
"XOOOOOOOOOOOO+OOO@OOOOO+OOO@OOOO",
"XOOO+OO+OOO+O+OOOOO@O@O$@OOO$+OO",
"XOOOOOOO+$OOO$@OO+O@@OOOO+@OOOOO",
"XO+$OOOO+OO$OO+@$$$OO@OOOOOOOOOO",
"XOOOOO@OOOOOOOOOOOOOO@OOO+OOOOOO",
"XOOO@OOOOOOOO+OO@$O+@OO$OOOOOOOO",
"XXOOOO@OOOOO++O@OOOOOO+OOOOO+OOX",
"X X+@O$OOOOOOOOOOOOOOOOO$+OOOOXX"
};
