/* XPM */
static char *result[] = {
/* columns rows colors chars-per-pixel */
"32 31 23 1 ",
"  c #333C56",
". c #333D56",
"X c #323C57",
"o c #333C57",
"O c #323D57",
"+ c #333D57",
"@ c #566C86",
"# c #576C86",
"$ c #566D86",
"% c #576D86",
"& c #566C87",
"* c #576C87",
"= c #566D87",
"- c #576D87",
"; c #94B0C2",
": c #95B0C2",
"> c #94B1C2",
", c #95B1C2",
"< c #94B0C3",
"1 c #95B0C3",
"2 c #94B1C3",
"3 c #95B1C3",
"4 c None",
/* pixels */
"@=%#%=@#&@&@@&#%&@*@@@#@$@&*@@44",
"1<<1:<<;<:;:;;;<,<>;2,;:;;;;:=@4",
";;;,>;,,;;:;:;2;<;<>>;<;;;>>;<@#",
">:;:<;::;;:;;1;:;2;;;;:>;>;<;;:#",
";>;>:<;;2;>;;;12;;>;;;1,:;;;;>;@",
":;1<;;:,<>;>;<;;;;<;;;><;>;<;::@",
";2;2;:<><;;;,;>;2;;;1>1;,;;>><;*",
"@$@@@@&@@%@@&$$&@@#=@*#&;;3;;;:@",
"o o XXo+Xo.o ooOXXooXoo+@>>;;:<%",
"oX@&$@@@$&@$$@$@&##@@ooo@;:;,;:@",
"o@*@&#$@@@@#*@#@@*@*@$oo@1;;;>>=",
"=@@@@@-@$@*#&$@@@$@@@$&o&;>1;::@",
"*&$@$#&%$@=#@$@-@$$-$-#o&<;;;;2*",
"@$@#=@&&@$&&#@&@#@@&###O&;;;<>1@",
"@@@@$$$=@@=#$@@#@#$@@&$O#;<;>:<@",
"#@@@@*@*#$&&@@$@*@@@&@&.@;,::;2%",
"&@*&#&@&%&@@&@*-#$#$$@&o$1;2<,1#",
"$=@%@&@@###$#&$@$@##@=#o#;;;<,;$",
"&%&#&@@$@&@@#$@&@*#@#-&o&<:<:;>@",
"#@&#&@$@@##&#=@@%&@$@#* %,>>;<;&",
"@@*$@&$&$*@@-#@@@@@#@%$o-;<>;;<@",
"&@@#@#$&@@$&@@@%=##=@@&X@<;<;;>@",
"@$=@@@@@@&#$$@$@&&@*&@#o#;<2;;<*",
"@@-&@@@%@@&&@%$@@=@*@$&o*<:<:,:&",
"$%@@$%$@@@#*@#@=&$@@@@$ *1<;<::*",
"$@@@####@&@%=%&#@@&-@$-o@>,;:;;&",
"@#@@&@$@%@&@@*$@$@&$@$=X@>;;>,2$",
"@%@@@@%$=@&#&=$@*@$@@@#+&;:>;>;@",
"@$&#@@$@@&$&@@&@#@@@$@@o@::<<<;#",
"&@#@&%@@@%&@&@@$$@$$#@@o@;;,>2<@",
"o@@@@####@#@@@=@&@%@@#X+@<;;<1;$"
};
