/* XPM */
static char *result[] = {
/* columns rows colors chars-per-pixel */
"31 31 42 1 ",
"  c #323C56",
". c #333C56",
"X c #323D56",
"o c #333D56",
"O c #323C57",
"+ c #333C57",
"@ c #323D57",
"# c #333D57",
"$ c #44546E",
"% c #45546E",
"& c #44556E",
"* c #44546F",
"= c #45546F",
"- c #44556F",
"; c #566C85",
": c #566E85",
"> c #566C86",
", c #576C86",
"< c #566D86",
"1 c #576D86",
"2 c #566C87",
"3 c #576C87",
"4 c #566D87",
"5 c #576D87",
"6 c #748EA4",
"7 c #758EA4",
"8 c #748FA4",
"9 c #758FA4",
"0 c #758EA5",
"q c #758FA5",
"w c #768EA4",
"e c #768FA4",
"r c #768EA5",
"t c #94B0C2",
"y c #95B0C2",
"u c #94B1C2",
"i c #95B1C2",
"p c #94B0C3",
"a c #95B0C3",
"s c #94B1C3",
"d c #95B1C3",
"f c None",
/* pixels */
"<ttittu<#*>>,>><<<2>,4>>44<<4>>",
"<tpiudy<+11>><,<<<>>><><<<<<4<>",
">uyiiit,+<<,>1>>,12><>2<<<<1<4,",
",tytiyp2 >><><>,>>><<>4<5,4<44>",
"4tytiyu4 11<<<>3>1,4<2<><<>,>2>",
"4iituyi4#>>>12>>,>>>,>2>114>4>>",
"2iytyti>#><<1<><>2>>2,2<<<<<<><",
">uptiui>O><<<<2<13<>2,><>>><<>4",
">uyytss<O><<>,>14><<2>4<2>><<2,",
"1tyytut> ><><>2<22<,>>4<4,,<1><",
"4ututuy<X>,<>>><2,<,<>>>44>>12<",
">ututsy>#2,1<2<2<><,<>>><>><1>1",
">tyttta>#2<1<2>><<<,>>>><><1<,4",
"3yyttty>o44>1><>><><<<><1>><<,>",
"2yytuti>.<><<><>2>>4><,1<>><<>2",
">yititi,+>>1<>,>>>><>4><<<>><<>",
">pisiyy>o4>5>>1><>2<>>><<<2,>>>",
">syutty<o><<2<1<<><>><<><>>>,>1",
"2utptty<X><<><>>>4<>><<><><>>>>",
"<dyypyu> &<<>>,2<<<>2<1<<4<>><<",
"<ityuyi,+X*1><><<>><>><<><<><<*",
",dtytyd<##X$**$==**=*&**=***=-@",
">yittus7**=*=%*****=**=**$**=**",
">yiutuiu70w77w770e777779777777r",
"<piuttpduiidtituiiuuiutpyttttid",
"<uutptyiaititytuiutuuiypysuitiy",
">istptytiyttttiuiittduituusitui",
"<7ityyytyittttytiiyuyautupudyti",
":19ydtyauututttyuytuyytyyutyyyu",
"f;<797779797087w0777776776q77r7",
"ff>>5<>>>><2>>,,>1,1>>34>>3<>53"
};
