/* XPM */
static char *result[] = {
/* columns rows colors chars-per-pixel */
"32 31 13 1 ",
"  c #566C86",
". c #576C86",
"X c #566D86",
"o c #566C87",
"O c #566D87",
"+ c #94B0C2",
"@ c #95B0C2",
"# c #94B1C2",
"$ c #95B1C2",
"% c #94B0C3",
"& c #95B0C3",
"* c #94B1C3",
"= c None",
/* pixels */
" ++++++ ========================",
" *+++#+ ========================",
" #++++@.========================",
"X++++$#X========================",
" ++++++ ========================",
".++@+@+ ========================",
"X%++++@ ========================",
".+%%++% ========================",
" ++%@++ ========================",
" +@++@+ ========================",
" ++++++ ========================",
" +@++@& ========================",
" +%#+++ ========================",
" +%++@+ ========================",
"X&++#@+ ========================",
" ++@+++ ========================",
"X+&+%%+ ========================",
" ++@+++ ========================",
" ++@+++ ========================",
"X##+#%+ ========================",
" +#+@++ ========================",
" +++%++ ========================",
" +*+#++ ========================",
" ++++++ ========================",
" +$++++O========================",
"o++++++ ========================",
" #++#++ ========================",
" ++++++ ========================",
"o%#++++ ========================",
".+#+@%+.========================",
"X+@+++# ========================"
};
