/* XPM */
static char *result[] = {
/* columns rows colors chars-per-pixel */
"32 31 24 1 ",
"  c #323C56",
". c #333C56",
"X c #333D56",
"o c #323C57",
"O c #333C57",
"+ c #323D57",
"@ c #333D57",
"# c #566C86",
"$ c #576C86",
"% c #566D86",
"& c #576D86",
"* c #566C87",
"= c #576C87",
"- c #566D87",
"; c #576D87",
": c #94B0C2",
"> c #95B0C2",
", c #94B1C2",
"< c #95B1C2",
"1 c #94B0C3",
"2 c #95B0C3",
"3 c #94B1C3",
"4 c #95B1C3",
"5 c None",
/* pixels */
"O#$%#$$=$#=#%#%#**&#%$O+%:1:3<:%",
"=*$$*$%#-$=#;&#%%$*%&=*O#1>><,1%",
"*&#$#&#*#*#*%#*#$%*%%## $::112:$",
"*&$#*#&$-=*=*;####%#%&=@&:>4:,:#",
"#$-%*$%&;$*##=&#%#*&$%-O&,:,,43%",
"%###$&$=#-#%-&*&#$=-%%;O#,<::,,*",
"%&##%;%#$#$=*&$-*#$$#&-.=2122>>;",
"**=**##;#$%*$=%#%-$=#&- ;1>12<>=",
"=%-#%###*-&%-#%$**$$=#$O$::<>::=",
"*;#$*&%**&%-###-**$#$#$o*3:1:,,#",
"&#*%#=%*$;#$;=$$##*==&#.;11:::1#",
"$##$$$%$%=#*$=#$&-#-#&=X&4,1:1>*",
"=&*%*%=%%#*$=-#***$%=;*O=1>1::<#",
"%-#%#;##$$$%$*#=%####&# &:>,1<:;",
"-###=*#*$;#%-#$;%#$#%#*@%>>,242=",
"$#&=%=%*$#-##-#--*%%*#*X#:<>:24&",
"#*##%%%%##-$%**$*&&##*%+#,21,>3$",
"#%#$--*-%%=#%#%#=#&==%$ *>2>33:#",
"$*-#%#;;%#%#$*%;%%%=*-#@#1,1:24#",
"-#*%=#&*##*&=-%%%###-%=o;1,21:>%",
"+*&#*;**#%#$;#$#*$#=$&O.#>>13<,;",
"Oo#*;-*#%=#%&$%%-$$-%@OO#>>1>,:*",
"OX@.o O@o+X@.OO.O.OO@@@X$,::,<3&",
"#%%$##*##;#%#%%*%*$#*=&-::4::1>#",
">4:1,2>,13:1<1,131>,2,<>,,:3313=",
"2:2::,>,1,:,,1::<:2:::43:<13,2<#",
":,:,>1,131::1:131:,:::><>1,:,,,#",
",>>>1:2>>::::2:124,13:>3:1:2,3>*",
"21:<,><<1:<:>:311:1::31112<,:1#$",
"2>:2>13:1>,<:1>141,:1<><:1:2>-*5",
"#-&$;-%%#$*%#*$&=**-##$#%#*=#%55"
};
