/* XPM */
static char *result[] = {
/* columns rows colors chars-per-pixel */
"31 32 12 1 ",
"  c #38B664",
". c #38B764",
"X c #38B665",
"o c #38B765",
"O c #A6F070",
"+ c #A7F070",
"@ c #A6F170",
"# c #A7F170",
"$ c #A6F071",
"% c #A7F071",
"& c #A6F171",
"* c #A7F171",
/* pixels */
"+++#++O++++@++%+++++++O++++++#O",
"++++++O+.O++%++*+++++O+++++%+++",
"+++%+++*%+++++++%++++++++#++O++",
"+O++O++++++##+#+$O+o++#+#+%%+++",
"++#++OO+++++++O+$++++++++++O+$+",
"+++++++++#%+++++++++++++++++O++",
"+++..+++O++++%++#++#+++++++%$++",
"%++ .+++%+++++%O+#++%%++#+++++@",
"+++++++++++#+++++++#+++++++++++",
"O#+O++++++++++++++++++%%+++++++",
"+++O#+++++++++++++O+#%O+++O+#%+",
"++*%+++O+++++++++O+++#++O#O++++",
"++++++++%++++++++++++++#+%+++++",
"%++%++++++++++++++++++O++..++++",
"++++#%O++O++O++++++++++++..++++",
"++O+++++%++#+++++++++O++@++++++",
"+++++++++++++++#++++#+++#++++++",
"+#+O++%+o+++#++@#+++++#++OO+*+%",
"+O++++++%++O+O+++#++O++++++++O+",
"++++++#+%++++O+++++.++++++++#+$",
"+%++++++++++#++++++++++++O%++++",
"+O+++#+++++++*++%%++++O+#++%O++",
"+%+.X+++++%++++O+*%+++++++#++++",
"+%@..+++++++%++++++#+++++++O+#O",
"+++#++O+++++#++++#++++O#+%++O%+",
"++%++OO+++#%+++++++++++++++++%O",
"++++O%++++%+#+++O++O++$++++%+++",
"+++++++%%++++++++++++++%O++++++",
"+#%++++++++&+O##++#+++#++%+++++",
"++++++++*O+++#++++*+++@++..%+++",
"+$+++@+#+%++++++#++O+++++o.++++",
"O++++++++++#+++%+++++++%%+++###"
};
