/* XPM */
static char *result[] = {
/* columns rows colors chars-per-pixel */
"31 31 46 1 ",
"  c #1A1C2C",
". c #1B1C2C",
"X c #1A1D2C",
"o c #1B1D2C",
"O c #1A1C2D",
"+ c #1B1C2D",
"@ c #1A1D2D",
"# c #1B1D2D",
"$ c #5C265C",
"% c #5D265C",
"& c #5C275C",
"* c #5D275C",
"= c #5C265D",
"- c #5D265D",
"; c #5C275D",
": c #5D275D",
"> c #B13E53",
", c #B13F53",
"< c #EE7D56",
"1 c #EF7D56",
"2 c #EE7C57",
"3 c #EF7C57",
"4 c #EE7D57",
"5 c #EF7D57",
"6 c #3A5CC8",
"7 c #3B5CC8",
"8 c #3A5DC8",
"9 c #3B5DC8",
"0 c #3A5CC9",
"q c #3B5CC9",
"w c #3A5DC9",
"e c #3B5DC9",
"r c #72EFF6",
"t c #73EFF6",
"y c #73EEF7",
"u c #72EFF7",
"i c #73EFF7",
"p c #F4F4F4",
"a c #F5F4F4",
"s c #F4F5F4",
"d c #F5F5F4",
"f c #F4F4F5",
"g c #F5F4F5",
"h c #F4F5F5",
"j c gray96",
"k c None",
/* pixels */
"kkkkkkkkkkkkkkkkkkkkkkkkkkkkkkk",
"kkkkkkkkfssfpgagpappkkkkkkkkkkk",
"kkkkkkkkaadahppappghkkkkkkkkkkk",
"kkkkkkfp-*::;$&;:;*;dpkkkkkkkkk",
"kkkkkkfp:*:::&=;:;::ppkkkkkkkkk",
"kkkkkkpp:=;:;*&$*-::ppkkkkkkkkk",
"kkkkkkdp:;=::%*=::*:ppkkkkkkkkk",
"kkkkkkkkpa O .X@*;$:  spkkkkkkk",
"kkkkkkkkpgX .OXO::&-  afkkkkkkk",
"kkkkkkkkfs53,>5342 Xfsppkkkkkkk",
"kkkkkkkkhp55>>5<53 ophhdkkkkkkk",
"kkkkkksd O44243<55 Xqe7esskkkkk",
"kkkkkkpaX 5<154555 X9q9wppkkkkk",
"kkkkgfo.   O  .  XXO8wqqewfskkk",
"kkkkpsO  X   . OOXO e6wqw9ppkkk",
"kkkkdd@ OX7eeeewee O  eeq9adkkk",
"kkkkph#@ .we9ee6qwOO .we9wafkkk",
"kkkkkkaa.Xuiiiirq70w  XX  pdkkk",
"kkkkkkgp Xyiuuti8eq9 @@#XXpskkk",
"kkkkss  . qeww7eeqqeOo +qwspkkk",
"kkkkps.@. eee09qeewe  . w7fpkkk",
"kkkkgpO OO OO X   OO Oewewppkkk",
"kkkkasO +  X +@o     O8eqqggkkk",
"kkkkspqe .e9ew0eew  X+eqq9askkk",
"kkkkjp9e oe6ewe98e+ o@ew69fpkkk",
"kkkkss0w o+.eee9OX X .fpppkkkkk",
"kkkkps09 X.O8809 ..   ssfpkkkkk",
"kkkkfa. @@eegpppadppeepskkkkkkk",
"kkkksh X  w9pppgaaspeqpskkkkkkk",
"kkkkkkkkkk. X O. .  oXkkkkkkkkk",
"kkkkkkkkkk@OXO O    OXkkkkkkkkk"
};
