/* XPM */
static char *result[] = {
/* columns rows colors chars-per-pixel */
"32 42 23 1 ",
"  c #1A1C2C",
". c #1B1C2C",
"X c #1A1D2C",
"o c #1A1C2D",
"O c #5D275C",
"+ c #5D265D",
"@ c #5C275D",
"# c #5D275D",
"$ c #B13E53",
"% c #EF7D56",
"& c #EF7C57",
"* c #EE7D57",
"= c #EF7D57",
"- c #3B5DC8",
"; c #3B5CC9",
": c #3A5DC9",
"> c #3B5DC9",
", c #73EFF7",
"< c #F4F4F4",
"1 c #F5F4F4",
"2 c #F4F5F4",
"3 c #F4F4F5",
"4 c None",
/* pixels */
"44444444444444444444444444444444",
"44444444444444444444444444444444",
"44444444444444444444444444444444",
"4444444444444<<<<<<<<<2<34444444",
"4444444444444<<<<<<<2<<<<4444444",
"4444444444432#O+#O#####O#1<44444",
"44444444444<<#@####+#O+##<<44444",
"44444444444<<###O########<<44444",
"44444444444<2############<<44444",
"444444444<<. ####   .  <<4444444",
"444444444<<  ###O . X  <14444444",
"4444444<<<<<<. ===&$$=*  <<44444",
"4444444<<<<13  ====$$==  <<44444",
"44444<<->>>;>  *===%=*=X.  <<444",
"44444<<>->>>;  ========    <<444",
"444<<.o>>>>>>            X 3<444",
"4441<  >;:>>>      o       <<444",
"4<<>>  >-;>  . ;>>;>>>>  <<44444",
"4<<>;  >>>>  X >>>>>>>> o<<44444",
"4<<>>>><2<< .>>>>,,,,,,X   <3444",
"4<3>>>;<<<<  >>>>,,,,,,    2<444",
"42<->>>2<32 o>>>;>>;:>>.   <2444",
"43<>>>><2<<X >>>->>>>>>    <3444",
"444<<<244<1  . X         :>21444",
"444<<1<443<             o;><<444",
"444444444<<   X      >-  >><<444",
"444444444<<    X     ;:  >>2<444",
"444444444<<. X   .    X.   <<444",
"444444444<<        o       <<444",
"44444444444<<>>  <<>><1<<<<44444",
"4444444444413>>  1<>><<<<<<44444",
"4444444444444<<<<44<244444444444",
"4444444444444<3<<44<<44444444444",
"44444444444444444444444444444444",
"44444444444444444444444444444444",
"44444444444444444444444444444444",
"44444444444444444444444444444444",
"44444444444444444444444444444444",
"44444444444444444444444444444444",
"4444444444444  o   X 44444444444",
"4444444444444o     o 44444444444",
"444444444444444    4444444444444"
};
