/* XPM */
static char *result[] = {
/* columns rows colors chars-per-pixel */
"57 52 16 1 ",
"  c #1A1C2C",
". c #1A1D2C",
"X c #1A1C2D",
"o c #28507A",
"O c #28517A",
"+ c #29517A",
"@ c #28517B",
"# c #40A6F6",
"$ c #41A6F6",
"% c #41A7F6",
"& c #41A6F7",
"* c #73EFF6",
"= c #73EEF7",
"- c #72EFF7",
"; c #73EFF7",
": c None",
/* pixels */
":::::::::::::::::::::::::::::::::::::::::::::::::::::::::",
":::::::::::::::::::::::::::::::::::::::::::::::::::::::::",
":::::::::::::::::::::::::::::::::::::::::::::::::::::::::",
":::::::::::::::::::::::::::::::::::::::::::::::::::::::::",
":::::::::::::$$$$$$$$$$::::::::::$$#$$$$$$$::::::::::::::",
":::::::::::::$$$$$$$$$$::::::::::$$$$$$$$$$::::::::::::::",
":::::::::$$$$$$$$$$$$$$$&$#::$&$$$$$$$$$$#$$$&$::::::::::",
":::::::::$$$$$$$$$$$$$$$$$$::$&$$$$$$$$$$$$$$$$::::::::::",
":::::::$$$%$$$#$$$$$$$$$$$$$$$$$$$%$$$$$$$&$$$$#$::::::::",
":::::::$$$$$$$$&$#$$$$$$$$$$$$$$$$$$$$$$$$$$$$$$$::::::::",
":::::$&$$$$#$$$$$$&$$$$#$$$$$$$$$$$$$$#$$$$$$$$$$$$::::::",
":::::$$$$$$$$$$$$$$$$$$$$$$$$$$$$$$#$$$$$$&$$$$$$$$::::::",
":::::$$$$$%$$$$;;;*;;;;#$$#$$$$$$;;;;;;;;$$$#$$$$$$::::::",
":::::$$$#$$$$$$;;;;;;;;$&$#$$#&$$*;;;;;;;$&$$$$$$$$::::::",
":::$$$$$$$$;;;;;;;;;;;;;;;;$%;;;;;;;;;;*;;;;;$$$$$$$$::::",
":::$%$$$#$$;;;;;;;;;;;;;;;;$$;;;;;;;;;-;;;;;;$$$$$$$$::::",
":::$%$$$$&$;;;;;;;;;;;=;;=;$$;;;;;=;;;;;;;;;;$$$$%$$$::::",
":::$$$$$$$$;;;;;;;;;;;;;;;;$$;;;;;;;;=-;;;;;-$$$$$$$$::::",
":::$$$$$$;;;;;;*;;;;;;;;;     X   .  ;;;=;;;;;=$&$$$$::::",
":::$$$$$$;;;;;;;;;;;;*;;;        X   ;;;;;;;;;;$$$$$$::::",
":::$$$$$$*;;;;;;;;;;;;;-*      OOOOO@;;;;;;;;;;#$$$$$::::",
":::$$$$$$;;;;;;;;;;;-;=;;      OOOOOO;;;;;;;;;;$$%$$$::::",
":::$$$$$$;;;;;;;;;;;;;=+OOOOOOOO+$$$$$$$$;;=;;;$$%$$$::::",
":::$$$$$$;;;;;;;;;;;;;;OOO+OOOOOO$$$&$$$$;*;;;;$$%$$$::::",
":::::$$$$;;;;;;;;$$$$$$#$OOOO$$%#;;;;;;;;$$$$;;#$$$::::::",
":::::$$$$;;;;;;;;$$%$$$$$oOOo$$$$;;;;;;;;$$$$;;$$$$::::::",
":::::$$$$$$;;%$$$;;=;;;;;$$$$;;;-;;;;;;;;;;;;$$$$$$$$::::",
":::::$$$$$$;;$$$$;*;;;;;;$$$$;;;;;;;;;;;;;;;;$$$$$$$$::::",
":::::::$$$$#$;;;;;*;;;;;;;;;;$$;-*;;;;-;=-;;;$$$$$$$$::::",
":::::::$$$$$$;;;;;;;;;;;;;;;;$&;;;;;;=;;=;;;;$$$$$$$$::::",
":::::$$$$&$$$;;;;;;;;*;;;=;;;$$;;;;;;;;;;;;;-;;$$$$$$$$::",
":::::#$$$&$$$;;;;;;;;;;;;;;;;$$;-;;;;;;;;;*;;;;$$$$$$$$::",
":::::$$%$$$;;=;;;;*;;;=;;;;;;;;;;;;;;;;;;;*=;;;$$$$$$$$::",
":::::$$$$&$;;;;;;;;=-;;;;;;;;;*;;;=;;;;;;;*;;;;$$$#$$$$::",
":::::$$$#$$;;;;;;;;;;;;;;;;;;;;;;;;;;;;;;;;;;;;$$$$$$$$::",
":::::#$$$$$;;;;;;;;;;;;;*;;;;;;;;;;;;;;;=;;;;;;$$$$$$$$::",
":::::#$$$$%;;;;;;;;;;*;;;;;;;;;;;;;;;;;;;;*;;;;$$$$$%$$::",
":::::#&$$$$;;;;;;;;;;;;;;;;;=;;;;;;;*;;;;;;;;;=$$$$$$$$::",
":::::$$$#$$;;;;;;;;;;;;;;;;;;;;;;;;;;;;*=;*;;$$$&$$$$$$::",
":::::$$$$$$;;;;;;;;;;;;;;;;;;-*;;;;;;;;*;;;;;$$$$$$$$$$::",
":::::::$$$$$$;;;;;;;;;;;;;;;;;;;;;;;;;;;;;;;;$$#&$#$$::::",
":::::::$$$$$$;;;;;;;;;;;;;;;;;;=;;;;;;;;;;;;;$$$$$$$$::::",
":::::::$$&$$$;;;;;;;;*;;;;;*;$$$$;;;;;;;;$$$$$$$$$$$$::::",
":::::::%$$%$$;;;;;;;;;;;;=-*;$$$$;;;;;;;;$$$$$$$$$$$$::::",
":::::::::$$$$$$$$;;;;;;;;$$$$$$$$$$$$$$$$$$$$$$$$$$::::::",
":::::::::$$$$$$$$;;=;;;;;$$$$$$$$$$$$%$$$$&%#$$$$$$::::::",
":::::::::::$$$$$$$$$$&$$$$$$$::$$$$$$$$$$$$$$$$$$::::::::",
":::::::::::$$%$$%$$%$$$$$$$&$::$$&$$$$$&$#$$$$$$$::::::::",
":::::::::::::::$$$$$$$$$$::::::::::$$$$$$$$$$::::::::::::",
":::::::::::::::$$$$$#$$$$::::::::::#$%$$$$$$#::::::::::::",
":::::::::::::::::::::::::::::::::::::::::::::::::::::::::",
":::::::::::::::::::::::::::::::::::::::::::::::::::::::::"
};
