/* XPM */
static char *result[] = {
/* columns rows colors chars-per-pixel */
"37 33 24 1 ",
"  c #1A1C2C",
". c #1B1C2C",
"X c #1A1D2C",
"o c #1A1C2D",
"O c #5D275C",
"+ c #5D265D",
"@ c #5C275D",
"# c #5D275D",
"$ c #B13E53",
"% c #EF7D56",
"& c #EF7C57",
"* c #EE7D57",
"= c #EF7D57",
"- c #3B5DC8",
"; c #3B5CC9",
": c #3A5DC9",
"> c #3B5DC9",
", c #72EFF7",
"< c #73EFF7",
"1 c #F4F4F4",
"2 c #F5F4F4",
"3 c #F4F5F4",
"4 c #F4F4F5",
"5 c None",
/* pixels */
"5555555555555555111111121111555555555",
"5555555555555555111111111111555555555",
"5555555555555511############115555555",
"5555555555555511####@#+####O125555555",
"5555555555555541##+##+######115555555",
"5555555555555531O###+#######135555555",
"55555555555511  ####      11555555555",
"55555555555511  @###   o  11555555555",
"5555555555112411  ====$$==32415555555",
"5555555555111121  =&==$$%=14115555555",
"5511111111>>>:>>. &==&##==    1111115",
"5512111111-;>->>  ====#+*=    2111415",
"11>->>    ;>>>>>       .  . X       1",
"11>>>>    >->>>;                    3",
"14>>->>>  >>>>    >>>>-;:>X    o   X2",
"11>>>>>>. >>->.  .>>>>>>>>     X o  1",
"55132111131411  >>>><<,<<,13111113115",
"55111111111111  >;>><<<<<<12111131115",
"55555555555511. >>>;>>>>>>14555555555",
"55555555555531 X>->>>;>>;>11555555555",
"55555555555511           o11555555555",
"55555555555511   . X o   X11555555555",
"55555555555531  . >>->:>>>11555555555",
"55555555555511X.  >>>>>;:>11555555555",
"55555555555513      >>>:  11555555555",
"55555555555511    X >;>> .11555555555",
"55555555555511>>11113113>>11555555555",
"55555555555511>>11411412->11555555555",
"55555555555555 X     X    55555555555",
"55555555555555 .         o55555555555",
"5555555555555555        5555555555555",
"5555555555555555        5555555555555",
"5555555555555555555555555555555555555"
};
