/* XPM */
static char *result[] = {
/* columns rows colors chars-per-pixel */
"31 32 32 1 ",
"  c #1A1C2C",
". c #1B1C2C",
"X c #1A1D2C",
"o c #1B1D2C",
"O c #1A1C2D",
"+ c #1B1C2D",
"@ c #5D275C",
"# c #5D265D",
"$ c #5C275D",
"% c #5D275D",
"& c #B13E52",
"* c #B13E53",
"= c #EF7C56",
"- c #EF7D56",
"; c #EE7C57",
": c #EF7C57",
"> c #EE7D57",
", c #EF7D57",
"< c #3A5CC8",
"1 c #3B5CC8",
"2 c #3B5DC8",
"3 c #3B5CC9",
"4 c #3A5DC9",
"5 c #3B5DC9",
"6 c #72EFF7",
"7 c #73EFF7",
"8 c #F4F4F4",
"9 c #F5F4F4",
"0 c #F4F5F4",
"q c #F5F5F4",
"w c #F4F4F5",
"e c None",
/* pixels */
"eeeeeeeeeeee88898888988weeeeeee",
"eeeeeeeeeeee888808888888eeeeeee",
"eeeeeeeeee88%%%%%@%%%%%%88eeeee",
"eeeeeeeeee8w%%@%%$$%%%%%88eeeee",
"eeeeeeeeee08%%@%%@%%%@#%q8eeeee",
"eeeeeeeeee88%%$%@%%%%%%%88eeeee",
"eeeeeeee88  %%%$      80eeeeeee",
"eeeeeeee88. %%%%. X   88eeeeeee",
"eeeeeeee8888 o,,,,*&,>88eeeeeee",
"eeeeeeee8098 X,,,;**,,88eeeeeee",
"eeeeee084515. ,,,,=,,-o 88eeeee",
"eeeeee905555  ,,,,>,:,  88eeeee",
"eeee88545455.       O   OOw8eee",
"eeee8w554555  OXO        O90eee",
"eeee885452    55555554    88eee",
"eeeew8555<  X 55555555 . Xw8eee",
"eeee88.   O 5535777777  89eeeee",
"eeee08  X . 5555767777  98eeeee",
"eeee8855. X 5555555555. 5598eee",
"eeee8954    5552555555O.5288eee",
"eeee885555O XO            88eee",
"eeee885555   .  .      O. 88eee",
"eeee985555O  O55552555X 5589eee",
"eeee885535O  .52534525  5580eee",
"eeeeee888w+     5552.   558weee",
"eeeeee888w      5555    2588eee",
"eeeeeeee885580888w8852    88eee",
"eeeeeeee88558888889825X   98eee",
"eeeeeeeeee    +  . X .eeeeeeeee",
"eeeeeeeeee X  O   OO  eeeeeeeee",
"eeeeeeeeeeeeX   O X eeeeeeeeeee",
"eeeeeeeeeeee X      eeeeeeeeeee"
};
