/* XPM */
static char *result[] = {
/* columns rows colors chars-per-pixel */
"37 40 30 1 ",
"  c #1A1C2C",
". c #1B1C2C",
"X c #1A1D2C",
"o c #1B1D2C",
"O c #1A1C2D",
"+ c #5D275C",
"@ c #5C265D",
"# c #5D265D",
"$ c #5C275D",
"% c #5D275D",
"& c #B13E53",
"* c #EF7C57",
"= c #EE7D57",
"- c #EF7D57",
"; c #3A5CC8",
": c #3B5DC8",
"> c #3B5CC9",
", c #3A5DC9",
"< c #3B5DC9",
"1 c #73EFF6",
"2 c #72EFF7",
"3 c #73EFF7",
"4 c #F4F4F4",
"5 c #F5F4F4",
"6 c #F4F5F4",
"7 c #F5F5F4",
"8 c #F4F4F5",
"9 c #F4F5F5",
"0 c gray96",
"q c None",
/* pixels */
"qqqqqqqqqqqqqqqq444468444444qqqqqqqqq",
"qqqqqqqqqqqqqqqq444454444444qqqqqqqqq",
"qqqqqqqqqqqqqq55%%%%$%%#%%%%84qqqqqqq",
"qqqqqqqqqqqqqq44%%%%%%%%#%%%44qqqqqqq",
"qqqqqqqqqqqqqq44%$%%@%%$%%%%44qqqqqqq",
"qqqqqqqqqqqqqq54%%%%%%%%#+%%44qqqqqqq",
"qqqqqqqqqqqq44O %%%%   .  54qqqqqqqqq",
"qqqqqqqqqqqq84  %%%%      44qqqqqqqqq",
"qqqqqqqqqq544444  ----&&-=4544qqqqqqq",
"qqqqqqqqqq444444  -==-&&--4444qqqqqqq",
"qq48444484<<<<<<  --*-%%--O   544444q",
"qq44444844:<<<<<  ----%%--   X444444q",
"44<<:< O  <,<<>: .     ..           4",
"44<<<<    <<><<>   .                4",
"44:<<>:< o<<<< O  <<<<<<:<          4",
"44,<:<<<  <<<<    <,<<<<<<     .    4",
"qq444444845464 .<<,<3323334444448444q",
"qq444444444544  <><,3331334644944454q",
"qqqqqqqqqqqq45 .<<<<<<<<>>46qqqqqqqqq",
"qqqqqqqqqqqq44  <<<<<<<<<<44qqqqqqqqq",
"qqqqqqqqqqqq44.   .     O 44qqqqqqqqq",
"qqqqqqqqqqqq44    .   O . 87qqqqqqqqq",
"qqqqqqqqqqqq44    <<<<<<<;44qqqqqqqqq",
"qqqqqqqqqqqq46X   <<<,<<<<44qqqqqqqqq",
"qqqqqqqqqqqq44  X O <>><  44qqqqqqqqq",
"qqqqqqqqqqqq54 X   O<<:<  44qqqqqqqqq",
"qqqqqqqqqqqq44<<04444444<<44qqqqqqqqq",
"qqqqqqqqqqqq44<<44446444<<44qqqqqqqqq",
"qqqqqqqqqqqqqq44qqqqqqqq44qqqqqqqqqqq",
"qqqqqqqqqqqqqq44qqqqqqqq45qqqqqqqqqqq",
"qqqqqqqqqqqqqqqqqqqqqqqqqqqqqqqqqqqqq",
"qqqqqqqqqqqqqqqqqqqqqqqqqqqqqqqqqqqqq",
"qqqqqqqqqqqqqqqqqqqqqqqqqqqqqqqqqqqqq",
"qqqqqqqqqqqqqqqqqqqqqqqqqqqqqqqqqqqqq",
"qqqqqqqqqqqqqqqqqqqqqqqqqqqqqqqqqqqqq",
"qqqqqqqqqqqqqqqqqqqqqqqqqqqqqqqqqqqqq",
"qqqqqqqqqqqqqqqq        qqqqqqqqqqqqq",
"qqqqqqqqqqqqqqqq  X     qqqqqqqqqqqqq",
"qqqqqqqqqqqqqqqqqq    qqqqqqqqqqqqqqq",
"qqqqqqqqqqqqqqqqqqO   qqqqqqqqqqqqqqq"
};
