/* XPM */
static char *result[] = {
/* columns rows colors chars-per-pixel */
"43 44 11 1 ",
"  c #1A1C2C",
". c #1B1C2C",
"X c #1A1D2C",
"o c #1B1D2C",
"O c #1A1C2D",
"+ c #73EFF6",
"@ c #72EEF7",
"# c #73EEF7",
"$ c #72EFF7",
"% c #73EFF7",
"& c None",
/* pixels */
"&&&&&&&&&&&&&&&&&&&&&&&&&&&&&&&&&&&&&&&&&&&",
"&&&&&&&&&&&&&&&&&&&&&&&&&&&&&&&&&&&&&&&&&&&",
"&&&&&&&&&&&&&&&&&&&&&&&&&&&&&&&&&&&&&&&&&&&",
"&&&&&&&&&&&&&&&&&&&&&&&&&&&&&&&&&&&&&&&&&&&",
"&&&&&&&&&&&&&&&&&&&%%$%%%%%%%%%&&&&&&&&&&&&",
"&&&&&&&&&&&&&&&&&&&%%%%%%%%%%%%&&&&&&&&&&&&",
"&&&&&&&&&&&&&&&&&%%            $%&&&&&&&&&&",
"&&&&&&&&&&&&&&&&&%%    .       %%&&&&&&&&&&",
"&&&&&&&&&&&&&&&&&%%           .%%&&&&&&&&&&",
"&&&&&&&&&&&&&&&&&+%   X        %%&&&&&&&&&&",
"&&&&&&&&&&&&&&&%%   O        %%&&&&&&&&&&&&",
"&&&&&&&&&&&&&&&$#O X     O   %%&&&&&&&&&&&&",
"&&&&&&&&&&&&&%%+%%%        X %%%%&&&&&&&&&&",
"&&&&&&&&&&&&&%%%%%%OX        %%+%&&&&&&&&&&",
"&&&&&%%%%%%%%      O .           %%%%%%&&&&",
"&&&&&%%%%#%#%                    %%$%%%&&&&",
"&&&%%         X        .       X   X   %%&&",
"&&&%%               .                 o%%&&",
"&&&$%X     O      .    . O   O .  O  X %%&&",
"&&&%%         X              .      .O %%&&",
"&&&&&%%%%#%%%%%%$     O  X O %%%%%%%%%%&&&&",
"&&&&&%%%%%%%%%$%%  .         ##%%%%%%$%&&&&",
"&&&&&&&&&&&&&&&%% O X        %@&&&&&&&&&&&&",
"&&&&&&&&&&&&&&&%%    .     O %%&&&&&&&&&&&&",
"&&&&&&&&&&&&&&&%%X    .   X  %%&&&&&&&&&&&&",
"&&&&&&&&&&&&&&&%%      .     %%&&&&&&&&&&&&",
"&&&&&&&&&&&&&&&%%         .  %%&&&&&&&&&&&&",
"&&&&&&&&&&&&&&&%%            %%&&&&&&&&&&&&",
"&&&&&&&&&&&&&&&%%            %%&&&&&&&&&&&&",
"&&&&&&&&&&&&&&&%%            %$&&&&&&&&&&&&",
"&&&&&&&&&&&&&&&%%  %%%%%%%%  %%&&&&&&&&&&&&",
"&&&&&&&&&&&&&&&$%  %%%#%%%%  %%&&&&&&&&&&&&",
"&&&&&&&&&&&&&&&&&%%&&&&&&&&%%&&&&&&&&&&&&&&",
"&&&&&&&&&&&&&&&&&%%&&&&&&&&$%&&&&&&&&&&&&&&",
"&&&&&&&&&&&&&&&&&&&&&&&&&&&&&&&&&&&&&&&&&&&",
"&&&&&&&&&&&&&&&&&&&&&&&&&&&&&&&&&&&&&&&&&&&",
"&&&&&&&&&&&&&&&&&&&&&&&&&&&&&&&&&&&&&&&&&&&",
"&&&&&&&&&&&&&&&&&&&&&&&&&&&&&&&&&&&&&&&&&&&",
"&&&&&&&&&&&&&&&&&&&&&&&&&&&&&&&&&&&&&&&&&&&",
"&&&&&&&&&&&&&&&&&&&&&&&&&&&&&&&&&&&&&&&&&&&",
"&&&&&&&&&&&&&&&&&&& XO . X &&&&&&&&&&&&&&&&",
"&&&&&&&&&&&&&&&&&&&        &&&&&&&&&&&&&&&&",
"&&&&&&&&&&&&&&&&&&&&& O  &&&&&&&&&&&&&&&&&&",
"&&&&&&&&&&&&&&&&&&&&&    &&&&&&&&&&&&&&&&&&"
};
