/* XPM */
static char *result[] = {
/* columns rows colors chars-per-pixel */
"32 39 25 1 ",
"  c #1A1C2C",
". c #1B1C2C",
"X c #1A1D2C",
"o c #1A1C2D",
"O c #5D275C",
"+ c #5D265D",
"@ c #5C275D",
"# c #5D275D",
"$ c #B13E53",
"% c #EF7D56",
"& c #EF7C57",
"* c #EE7D57",
"= c #EF7D57",
"- c #3B5DC8",
"; c #3B5CC9",
": c #3A5DC9",
"> c #3B5DC9",
", c #73EFF6",
"< c #73EEF7",
"1 c #73EFF7",
"2 c #F4F4F4",
"3 c #F5F4F4",
"4 c #F4F5F4",
"5 c #F4F4F5",
"6 c None",
/* pixels */
"66666666666622222222222266666666",
"666666666652#########@##22666666",
"666666666622#####O###+##23666666",
"666666666622##@O#######@22666666",
"666666666622#####+@#####25666666",
"6666666622  ##O#.oX   2266666666",
"6666666622X ####      4266666666",
"666666662322  =*==$$==2266666666",
"666666662222  ====$$%=2266666666",
"66666622>>>: X=====&==  22666666",
"66666622;>>;  ===&*%==  22666666",
"66666622>>>>>>  >>>>    42666666",
"66666624>->>>;  >>>>    22666666",
"66666622>>>>>>;>>>:->>5266666666",
"66666622>>>>>:>>>>>>-;2266666666",
"6666666622  >>>-<11111X 22666666",
"6666666622  >-;>111,<1  25666666",
"6666666622 o>>>>>>>:>> o22666666",
"6666666622  ->>>>>>>>>  22666666",
"6666666642   oX       ->22666666",
"6666666622 o  o  o    >>22666666",
"6666666622    >>;>>>>>>>54666666",
"6666666642    >>>>>>>>>>22666666",
"6666666622      >->:    22666666",
"6666666632      >:>;  X 22666666",
"66666632>>  2222222522>;25666666",
"66666642>>  2222222222>-22666666",
"66666666222366666666662266666666",
"66666666222266666666662266666666",
"66666666666666666666666666666666",
"66666666666666666666666666666666",
"66666666666666666666666666666666",
"66666666666666666666666666666666",
"66666666666666666666666666666666",
"66666666666666666666666666666666",
"666666666666        666666666666",
"666666666666    X   666666666666",
"66666666666666 .  66666666666666",
"66666666666666o . 66666666666666"
};
