/* XPM */
static char *result[] = {
/* columns rows colors chars-per-pixel */
"31 31 33 1 ",
"  c #1A1C2C",
". c #1B1C2C",
"X c #1A1D2C",
"o c #1B1D2C",
"O c #1A1C2D",
"+ c #1B1C2D",
"@ c #1A1D2D",
"# c #5D265C",
"$ c #5C275C",
"% c #5D275C",
"& c #5D265D",
"* c #5C275D",
"= c #5D275D",
"- c #B13E53",
"; c #EE7C57",
": c #EF7C57",
"> c #EE7D57",
", c #EF7D57",
"< c #3A5DC8",
"1 c #3B5DC8",
"2 c #3B5CC9",
"3 c #3A5DC9",
"4 c #3B5DC9",
"5 c #73EFF6",
"6 c #72EFF7",
"7 c #73EFF7",
"8 c #F4F4F4",
"9 c #F5F4F4",
"0 c #F4F5F4",
"q c #F5F5F4",
"w c #F4F4F5",
"e c #F4F5F5",
"r c None",
/* pixels */
"rrrrrrrrrrrrrrrrrrrrrrrrrrrrrrr",
"rrrrrrrrrrr8888w8w8w888rrrrrrrr",
"rrrrrrrrrrre90808888099rrrrrrrr",
"rrrrrrrrr88*==*=%$=====88rrrrrr",
"rrrrrrrrr88==$=*=*&*===88rrrrrr",
"rrrrrrrrr88==&%#&#===*=88rrrrrr",
"rrrrrrrrr88====*====&=&80rrrrrr",
"rrrrrrr88  ====O . + 80rrrrrrrr",
"rrrrrrrw8 X====  O  X88rrrrrrrr",
"rrrrrrr8808  :,,,--:,88rrrrrrrr",
"rrrrrrr8888  ,,,:--,,88rrrrrrrr",
"rrrrr984244X ,,,,,;,>  88rrrrrr",
"rrrrr084144  ,,,>,,,,  98rrrrrr",
"rrr88442231 X   .   .   @88rrrr",
"rrr88444444 OX          O88rrrr",
"rrr894444  o 44244143 OOO80rrrr",
"rrr894444    32441443    w8rrrr",
"rrr80  XX  4214577777  88rrrrrr",
"rrr88  XXX 4444757677  88rrrrrr",
"rrr8032    4444423444    88rrrr",
"rrr8844    4344214444  O 08rrrr",
"rrr884434         .    . 88rrrr",
"rrr89244<   .   X X   .  88rrrr",
"rrr884444   .44444444  4488rrrr",
"rrr804244    44344444  4188rrrr",
"rrrrr888w      4444  O 3388rrrr",
"rrrrr8880    . 4344O   1488rrrr",
"rrrrrrr88448888888844O  .88rrrr",
"rrrrrrr8842888q988844    88rrrr",
"rrrrrrrrr            rrrrrrrrrr",
"rrrrrrrrr O       X Orrrrrrrrrr"
};
