/* XPM */
static char *result[] = {
/* columns rows colors chars-per-pixel */
"32 34 34 1 ",
"  c #1A1C2C",
". c #1B1C2C",
"X c #1A1D2C",
"o c #1A1C2D",
"O c #1B1C2D",
"+ c #5D265C",
"@ c #5D275C",
"# c #5C265D",
"$ c #5D265D",
"% c #5C275D",
"& c #5D275D",
"* c #B03E53",
"= c #B13E53",
"- c #B13F53",
"; c #EE7D56",
": c #EF7D56",
"> c #EF7C57",
", c #EF7D57",
"< c #3A5CC8",
"1 c #3B5DC8",
"2 c #3A5CC9",
"3 c #3B5CC9",
"4 c #3A5DC9",
"5 c #3B5DC9",
"6 c #73EFF6",
"7 c #73EEF7",
"8 c #73EFF7",
"9 c #F4F4F4",
"0 c #F5F4F4",
"q c #F4F5F4",
"w c #F4F4F5",
"e c #F5F4F5",
"r c #F4F5F5",
"t c None",
/* pixels */
"tttttttttttttttttttttttttttttttt",
"tttttttttttte09999eq9999tttttttt",
"tttttttttttt999999990999tttttttt",
"tttttttttt99$&&&%&&&&&&&99tttttt",
"tttttttttt9w&&&&&&&&&&#&9wtttttt",
"tttttttttt99&&&%%$%&&&&@99tttttt",
"ttttttttttq9&&&+@&&&&@$&99tttttt",
"tttttttt99o &&&&      99tttttttt",
"tttttttt99  &&$&   .  9qtttttttt",
"tttttttt9999  :,,,*=,,99tttttttt",
"tttttttt9909o >,,;-=,,99tttttttt",
"tttttt995555  ,>,:,,,: .90tttttt",
"tttttt995535  ,,>::,,,  99tttttt",
"tttt995555<5.    X        99tttt",
"tttt99555554 X      o   . 99tttt",
"tttt905535X X 55551555X   99tttt",
"tttt995515X . 55555454 X  99tttt",
"tttt09 . X  1555888868  99tttttt",
"tttt9r     X4555788876  q9tttttt",
"ttttq955 X  3555145555    99tttt",
"tttt9955    1555555555   X99tttt",
"tttt9w4555               o99tttt",
"tttt995455    X       X   90tttt",
"tttt995535  X 42555555  1599tttt",
"tttt995552    15555554  5599tttt",
"tttttt9999o   . 5555o   5599tttt",
"tttttt999q  .oo 5555o   3599tttt",
"tttttttt90559999999951    9wtttt",
"tttttttt994499999wq955 O  w9tttt",
"tttttttttt        X   tttttttttt",
"tttttttttt        X . tttttttttt",
"ttttttttttttX o   oXtttttttttttt",
"tttttttttttt X      tttttttttttt",
"tttttttttttttttttttttttttttttttt"
};
