/* XPM */
static char *result[] = {
/* columns rows colors chars-per-pixel */
"32 39 39 1 ",
"  c #1A1C2C",
". c #1B1C2C",
"X c #1A1D2C",
"o c #1B1D2C",
"O c #1A1C2D",
"+ c #1B1C2D",
"@ c #1A1D2D",
"# c #5C265C",
"$ c #5C275C",
"% c #5D275C",
"& c #5D265D",
"* c #5C275D",
"= c #5D275D",
"- c #B13E52",
"; c #B13E53",
": c #EE7D56",
"> c #EF7D56",
", c #EF7C57",
"< c #EE7D57",
"1 c #EF7D57",
"2 c #3A5DC8",
"3 c #3B5DC8",
"4 c #3A5CC9",
"5 c #3B5CC9",
"6 c #3A5DC9",
"7 c #3B5DC9",
"8 c #73EEF6",
"9 c #72EFF6",
"0 c #73EEF7",
"q c #72EFF7",
"w c #73EFF7",
"e c #F4F4F4",
"r c #F5F4F4",
"t c #F4F5F4",
"y c #F5F5F4",
"u c #F4F4F5",
"i c #F5F4F5",
"p c #F4F5F5",
"a c None",
/* pixels */
"aaaaaaaaereereertertaaaaaaaaaaaa",
"aaaaaaru=$===$&%*=**tiaaaaaaaaaa",
"aaaaaarr$=#%=*======etaaaaaaaaaa",
"aaaaaaut$*&=%&==%*%=eeaaaaaaaaaa",
"aaaaaaie===&=*&=$&==eeaaaaaaaaaa",
"aaaaaaaaee OXoO.%%==  ueaaaaaaaa",
"aaaaaaaaet    . =*$& Xeeaaaaaaaa",
"aaaaaaaaee>1-;,<<1  trrtaaaaaaaa",
"aaaaaaaaie1>;;:111  eeeeaaaaaaaa",
"aaaaaaee  ,:,,1:11@X2676ueaaaaaa",
"aaaaaaeuX >,><11>,.+5775euaaaaaa",
"aaaaaatt    7737.O777562eeaaaaaa",
"aaaaaaet.  .7737  556737ttaaaaaa",
"aaaaaaaaer75367777737675ueaaaaaa",
"aaaaaaaaue43532577463577eraaaaaa",
"aaaaaaee Xwqwww83737  eraaaaaaaa",
"aaaaaaieX w09wwq7737 .eeaaaaaaaa",
"aaaaaaeeOX6763757757O euaaaaaaaa",
"aaaaaaee. 7677775773. eeaaaaaaaa",
"aaaaaaee76    X.   O  etaaaaaaaa",
"aaaaaaee75..  OX O .+ euaaaaaaaa",
"aaaaaayp7777373577   .teaaaaaaaa",
"aaaaaaee7275777777 .  etaaaaaaaa",
"aaaaaaee X.+6727 OX +Xeuaaaaaaaa",
"aaaaaaue X .5727  O O eraaaaaaaa",
"aaaaaaie72eeiueieeerX.75riaaaaaa",
"aaaaaaei35reteeeeeerOX63etaaaaaa",
"aaaaaaaaeuaaaaaaaaaareeeaaaaaaaa",
"aaaaaaaatraaaaaaaaaaeeeeaaaaaaaa",
"aaaaaaaaaaaaaaaaaaaaaaaaaaaaaaaa",
"aaaaaaaaaaaaaaaaaaaaaaaaaaaaaaaa",
"aaaaaaaaaaaaaaaaaaaaaaaaaaaaaaaa",
"aaaaaaaaaaaaaaaaaaaaaaaaaaaaaaaa",
"aaaaaaaaaaaaaaaaaaaaaaaaaaaaaaaa",
"aaaaaaaaaaaaaaaaaaaaaaaaaaaaaaaa",
"aaaaaaaaaaaa OOX+ X aaaaaaaaaaaa",
"aaaaaaaaaaaa  O@X. Xaaaaaaaaaaaa",
"aaaaaaaaaaaaaa ..Xaaaaaaaaaaaaaa",
"aaaaaaaaaaaaaa+. Oaaaaaaaaaaaaaa"
};
