/* XPM */
static char *result[] = {
/* columns rows colors chars-per-pixel */
"32 42 37 1 ",
"  c #1A1C2C",
". c #1B1C2C",
"X c #1A1D2C",
"o c #1B1D2C",
"O c #1A1C2D",
"+ c #1B1C2D",
"@ c #1A1D2D",
"# c #1B1D2D",
"$ c #5C275C",
"% c #5D275C",
"& c #5D265D",
"* c #5C275D",
"= c #5D275D",
"- c #B13E52",
"; c #B13E53",
": c #EE7D56",
"> c #EF7D56",
", c #EE7C57",
"< c #EF7C57",
"1 c #EF7D57",
"2 c #3A5DC8",
"3 c #3B5DC8",
"4 c #3A5CC9",
"5 c #3B5CC9",
"6 c #3A5DC9",
"7 c #3B5DC9",
"8 c #73EFF6",
"9 c #72EFF7",
"0 c #73EFF7",
"q c #F4F4F4",
"w c #F5F4F4",
"e c #F4F5F4",
"r c #F5F5F4",
"t c #F4F4F5",
"y c #F5F4F5",
"u c #F4F5F5",
"i c None",
/* pixels */
"iiiiiiiiiiiiiiiiiiiiiiiiiiiiiiii",
"iiiiiiiiiiiiiiiiiiiiiiiiiiiiiiii",
"iiiiiiiiiiiiiiiiiiiiiiiiiiiiiiii",
"iiiiiiitqeeqtqqyqtwiiiiiiiiiiiii",
"iiiiiiiqeqqeqqewqqqiiiiiiiiiiiii",
"iiiiiqr*=&=*==%=&%&rtiiiiiiiiiii",
"iiiiitq==&%*&&%==*=eqiiiiiiiiiii",
"iiiiieq=&*%&====$==qqiiiiiiiiiii",
"iiiiiqq====%=*====&etiiiiiiiiiii",
"iiiiiiiqq  .O  %&%$X.weiiiiiiiii",
"iiiiiiiye   . X%=&=  qtiiiiiiiii",
"iiiiiqe O,1-;<111 oqtqwtqiiiiiii",
"iiiiiqqX.11;;<>><  tqqeqwiiiiiii",
"iiiqq  O >:1>1<:: .753773teiiiii",
"iiiqq.   <:111:11OX467677qqiiiii",
"iiiyt X    O+ + X. 777773OOqeiii",
"iiiwq O X   O.X   .756753  qwiii",
"iiiiitq  57275375 .  7435  77qqi",
"iiiiiqw@ 37237675 oX 7567 .57qti",
"iiitq O X0000903377. wqqq3537eyi",
"iiiqr  .O0090807737. qqqq4377wqi",
"iiiuq O .7725775773O+rtwu7773wei",
"iiitq    7657753376 Xwqqq3777qti",
"iiiwe26 O O.    X oOOrwiirqeqiii",
"iiiqq75O.. .  .  +   qtiiqwqqiii",
"iiiqt53  66  OX OX   qwiiiiiiiii",
"iiiee65  65   OXX  OOqqiiiiiiiii",
"iiitqO. .@    +O .X  wqiiiiiiiii",
"iiiqqX  X.O    ..    ttiiiiiiiii",
"iiiiiqqtqrw77ttX 75ywiiiiiiiiiii",
"iiiiiqwqwqq63qq X77twiiiiiiiiiii",
"iiiiiiiiiiieyiiqteqiiiiiiiiiiiii",
"iiiiiiiiiiiyqiiqqtqiiiiiiiiiiiii",
"iiiiiiiiiiiiiiiiiiiiiiiiiiiiiiii",
"iiiiiiiiiiiiiiiiiiiiiiiiiiiiiiii",
"iiiiiiiiiiiiiiiiiiiiiiiiiiiiiiii",
"iiiiiiiiiiiiiiiiiiiiiiiiiiiiiiii",
"iiiiiiiiiiiiiiiiiiiiiiiiiiiiiiii",
"iiiiiiiiiiiiiiiiiiiiiiiiiiiiiiii",
"iiiiiiiiiii #  .@  iiiiiiiiiiiii",
"iiiiiiiiiiiXOOX O Oiiiiiiiiiiiii",
"iiiiiiiiiiiii. XOiiiiiiiiiiiiiii"
};
