/* XPM */
static char *result[] = {
/* columns rows colors chars-per-pixel */
"60 62 13 1 ",
"  c #3B5DC8",
". c #3B5CC9",
"X c #3A5DC9",
"o c #3B5DC9",
"O c #40A6F6",
"+ c #41A6F6",
"@ c #41A7F6",
"# c #41A6F7",
"$ c #73EFF6",
"% c #73EEF7",
"& c #72EFF7",
"* c #73EFF7",
"= c None",
/* pixels */
"============================================================",
"============================================================",
"============================================================",
"============================================================",
"============================================================",
"=================================oooooooooo=================",
"=================================oooooooooo=================",
"=====================o.oooooooooooooooooooooooo=============",
"=====================ooooooooooooo.oooooooooooo=============",
"===============oooooooooooXoooo++++++++++oooooooo===========",
"===============ooooooooooooo.oo++++++++++oo.oooo ===========",
"===========ooooo.oooo ooooo++++******++#+O+++oooooo=========",
"===========oooXoooooooooooo++++%*****+++++++O ooooo=========",
"=========o.oooooooooooooo++*******%******++++++oooooo=======",
"=========oooooooooooooooo++**&*%***&*****++++++oooXoo=======",
"=======oooooooXoooooooo++++**************++++#+++oooo=======",
"=======ooooXooooooooooo++++**************++++++++ooo.=======",
"=====oooooooooooooooo++++**********&*******++++++oooooo=====",
"=====oooooooo.o ooooo++++************%*****+++++#oooooo=====",
"=====oooooooooooooooooooo******oooooooooo**++++++++oooo=====",
"=====oooo oo oooooooooooo******oooooooooo**++++++++oooo=====",
"=== ooooooooooooo++++++++oooooo++++++++++oooX++++++oooo=====",
"===ooooooooooooooO+++++++oooooo++++O+@+++Xo.o++++++o.oo=====",
"===oooooooooo++++++++++++oo++++*&$***++++++++oo++++oooo=====",
"===oooooooooo+O++O+++++++oo++++******++++++++oo++++o.oo=====",
"=== .oooXoo++++++oooooooooo**&**********%++++++oo++oooo=====",
"===ooXo.ooo++++++oooooooooo**************+++O++oo++oooo=====",
"===oooooo++++oooo+++++++++Ooooo*&********++@+++++oooo=======",
"===ooX oo++++oooo++++++++@+oooo****&*****++@+++++oooo=======",
"===oooooo++oo++++++++++O+++++++.o******$***++++++oooooo=====",
"===oooooo+@o +O++++++++++++++++oo********&*++++++oooooo=====",
"===oooo++oo++++$*****+++#++#++++Ooo********++++++++oooo=====",
"===oooo++oo++++******++++@+++++++oo&*******++++++++oooo=====",
"===oooooo++**************++++O+++++oo******++++++++oooo=====",
"===oooooo++****$*******&*++++++++++oo******+++++++Ooooo=====",
"=====oooo++**************++++++++++oo****++++++++++oooooo===",
"=====oooo++****$******%**++++++++++oo***%++++++++++oooooo===",
"=== oo @+*****&$***********+++#++++O+*&**++++#+++++oooooo===",
"===oooo++******$*&*********++++++++++****++++#+++++oooooX===",
"===oooo+O***************$**++++++#+++++++++++++++++o.o oo===",
"===o.oo@+***************$**+++++++++++++@++++++++++oooooo===",
"===ooo ++*****&************++++@++@++++++++++++++oo ooooo===",
"===oooo@+****************%*+@O#+++@++++++++++++++oooooo.o===",
"===oooo++#+**************++++++++++++++++++++++++oooooooo===",
"===oooo@+++*******$******+++++#++++++++++++++++++oo ooooo===",
"=== oo +++@*$************@+++O+++++++++++++++++oooooooo.o===",
"===ooXo@+++**%***********++++++++++++++++++@+++oooXoooooo===",
"===ooX .o#++#++*****&++++@+++++++++++++++O++Ooooooooooo=====",
"===oooo.o++O+++****%*++O+++++++@+#+++@+++++++oooooooooo=====",
"=====oooo+++++++++++++++++++++++O++++++++Xooo ooooXooXo=====",
"=====oo.o+++++++@+++++++++++++#++++++++++ooooooooooooo =====",
"=====ooooo.++++++++++++++++++++++ooooooooooooooXooooo=======",
"=====oooooo++++#@++++++++++#+++++oooo.ooooooooooooooo=======",
"=======oooooo++++++++++++++++O+.ooooooooooooooooooo=========",
"=======ooo.oo+O++++++++++++++++ooooo oooooooooooooo=========",
"=========oooooo .++++++++++oooooooooooooooooooooo===========",
"=========oooooo o++++++++++oooooooooooo ooooooooo===========",
"===========X oooooooooooooXoooooo==ooooooo oo===============",
"===========oo.oooooooo.oooooooooo==oooXoooooo===============",
"===============oooo.ooooooooo===============================",
"===============oooooooooo.ooo===============================",
"============================================================"
};
